<?xml version="1.0" encoding="UTF-8" standalone="no"?>
<!-- Created with Inkscape (http://www.inkscape.org/) -->

<svg
   xmlns:dc="http://purl.org/dc/elements/1.1/"
   xmlns:cc="http://creativecommons.org/ns#"
   xmlns:rdf="http://www.w3.org/1999/02/22-rdf-syntax-ns#"
   xmlns:svg="http://www.w3.org/2000/svg"
   xmlns="http://www.w3.org/2000/svg"
   xmlns:sodipodi="http://sodipodi.sourceforge.net/DTD/sodipodi-0.dtd"
   xmlns:inkscape="http://www.inkscape.org/namespaces/inkscape"
   width="512.8291"
   height="115.25523"
   id="svg3252"
   version="1.1"
   inkscape:version="0.48.5 r10040"
   sodipodi:docname="Nuovo documento 5">
  <defs
     id="defs3254" />
  <sodipodi:namedview
     id="base"
     pagecolor="#ffffff"
     bordercolor="#666666"
     borderopacity="1.0"
     inkscape:pageopacity="0.0"
     inkscape:pageshadow="2"
     inkscape:zoom="0.97617187"
     inkscape:cx="247.97319"
     inkscape:cy="-15.762859"
     inkscape:document-units="px"
     inkscape:current-layer="layer1"
     showgrid="false"
     fit-margin-top="0"
     fit-margin-left="0"
     fit-margin-right="0"
     fit-margin-bottom="0"
     inkscape:window-width="1440"
     inkscape:window-height="852"
     inkscape:window-x="1280"
     inkscape:window-y="0"
     inkscape:window-maximized="1" />
  <metadata
     id="metadata3257">
    <rdf:RDF>
      <cc:Work
         rdf:about="">
        <dc:format>image/svg+xml</dc:format>
        <dc:type
           rdf:resource="http://purl.org/dc/dcmitype/StillImage" />
        <dc:title></dc:title>
      </cc:Work>
    </rdf:RDF>
  </metadata>
  <g
     inkscape:label="Livello 1"
     inkscape:groupmode="layer"
     id="layer1"
     transform="translate(0,1.9992001e-6)">
    <g
       id="g3414"
       transform="translate(-135.06434,-433.72306)">
      <g
         transform="matrix(3.3105528,0,0,-3.3105528,135.06434,520.09207)"
         id="g3018">
        <path
           id="path3020"
           style="fill:#706f6e;fill-opacity:1;fill-rule:evenodd;stroke:none"
           d="m 0,0 7.978,0 0,2.192 0.099,0 c 1.625,-1.79 4.088,-2.74 7.043,-2.74 8.028,0 11.426,5.115 11.426,10.45 0,4.933 -3.546,9.61 -10.786,9.61 -3.152,0 -5.565,-0.877 -7.289,-2.631 l -0.098,0 0,9.208 L 0,26.089 0,0 z m 13.199,14.762 c 3.694,0 4.974,-2.668 4.974,-5.079 0,-2.594 -1.28,-5.481 -5.023,-5.481 -3.793,0 -5.073,2.155 -5.073,5.481 0,3.909 2.857,5.079 5.122,5.079 z"
           inkscape:connector-curvature="0" />
      </g>
      <g
         transform="matrix(3.3105528,0,0,-3.3105528,233.60493,520.09207)"
         id="g3022">
        <path
           id="path3024"
           style="fill:#706f6e;fill-opacity:1;fill-rule:evenodd;stroke:none"
           d="m 0,0 8.373,0 0,26.089 L 0,26.089 0,0 z"
           inkscape:connector-curvature="0" />
      </g>
      <g
         transform="matrix(3.3105528,0,0,-3.3105528,299.37629,488.76235)"
         id="g3026">
        <path
           id="path3028"
           style="fill:#706f6e;fill-opacity:1;fill-rule:evenodd;stroke:none"
           d="m 0,0 c 0,2.411 1.182,5.298 5.073,5.298 3.891,0 5.122,-2.887 5.122,-5.298 0,-2.412 -1.231,-5.261 -5.122,-5.261 C 1.182,-5.261 0,-2.412 0,0 z m -8.373,0 c 0,-5.7 5.516,-10.012 13.446,-10.012 7.93,0 13.495,4.312 13.495,10.012 0,5.7 -5.565,10.048 -13.495,10.048 C -2.857,10.048 -8.373,5.7 -8.373,0 z"
           inkscape:connector-curvature="0" />
      </g>
      <g
         transform="matrix(3.3105528,0,0,-3.3105528,376.19738,520.09207)"
         id="g3030">
        <path
           id="path3032"
           style="fill:#706f6e;fill-opacity:1;fill-rule:evenodd;stroke:none"
           d="m 0,0 8.373,0 0,14.944 5.023,0 0,4.02 -5.023,0 0,0.84 c 0,1.717 1.182,1.9 3.103,1.9 0.738,0 1.477,-0.036 2.265,-0.11 l 0,4.385 c -1.33,0.037 -2.709,0.11 -4.038,0.11 C 2.561,26.089 0,24.408 0,18.964 l -4.039,0 0,-4.02 4.039,0 L 0,0 z"
           inkscape:connector-curvature="0" />
      </g>
      <g
         transform="matrix(3.3105528,0,0,-3.3105528,448.96465,482.23026)"
         id="g3034">
        <path
           id="path3036"
           style="fill:#706f6e;fill-opacity:1;fill-rule:evenodd;stroke:none"
           d="M 0,0 C 0.493,2.302 2.463,3.873 5.418,3.873 8.225,3.873 10.245,2.119 10.392,0 L 0,0 z M 18.765,-3.471 C 19.159,2.959 14.579,8.075 5.418,8.075 -2.118,8.075 -8.373,3.91 -8.373,-1.9 c 0,-6.358 5.665,-10.085 13.988,-10.085 5.713,0 11.18,1.9 12.707,6.285 l -7.831,0 C 9.703,-7.089 7.732,-7.783 5.713,-7.783 2.167,-7.783 0.148,-6.065 0,-3.471 l 18.765,0 z"
           inkscape:connector-curvature="0" />
      </g>
      <g
         transform="matrix(3.3105528,0,0,-3.3105528,520.73177,520.09207)"
         id="g3038">
        <path
           id="path3040"
           style="fill:#706f6e;fill-opacity:1;fill-rule:evenodd;stroke:none"
           d="m 0,0 8.373,0 0,26.089 L 0,26.089 0,0 z"
           inkscape:connector-curvature="0" />
      </g>
      <g
         transform="matrix(3.3105528,0,0,-3.3105528,603.4615,471.22238)"
         id="g3042">
        <path
           id="path3044"
           style="fill:#706f6e;fill-opacity:1;fill-rule:evenodd;stroke:none"
           d="m 0,0 c 3.645,0 4.974,-2.521 4.974,-5.262 0,-2.411 -0.886,-5.298 -4.974,-5.298 -3.842,0 -5.122,2.887 -5.122,5.481 C -5.122,-2.668 -3.842,0 0,0 z m 13.052,11.327 -8.373,0 0,-9.171 -0.098,0 C 2.857,3.873 0.443,4.75 -2.708,4.75 c -7.241,0 -10.787,-4.677 -10.787,-9.61 0,-5.334 3.398,-10.45 11.427,-10.45 2.955,0 5.417,0.95 7.042,2.74 l 0.099,0 0,-2.192 7.979,0 0,26.089 z"
           inkscape:connector-curvature="0" />
      </g>
      <g
         transform="matrix(3.3105528,0,0,-3.3105528,383.82955,541.1091)"
         id="g3046">
        <path
           id="path3048"
           style="fill:#706f6e;fill-opacity:1;fill-rule:evenodd;stroke:none"
           d="m 0,0 c 0.053,-0.325 0.159,-0.568 0.316,-0.728 0.288,-0.293 0.78,-0.439 1.478,-0.439 0.418,0 0.757,0.039 1.017,0.116 0.495,0.148 0.742,0.422 0.742,0.824 0,0.235 -0.122,0.416 -0.368,0.545 C 2.94,0.444 2.555,0.554 2.029,0.651 L 1.133,0.82 c -0.882,0.167 -1.491,0.348 -1.829,0.545 -0.571,0.327 -0.857,0.84 -0.857,1.538 0,0.636 0.277,1.165 0.829,1.586 0.552,0.421 1.362,0.632 2.432,0.632 0.893,0 1.654,-0.2 2.282,-0.598 C 4.623,4.128 4.954,3.552 4.985,2.797 l -1.702,0 C 3.252,3.224 3.03,3.528 2.616,3.708 2.34,3.827 1.997,3.886 1.587,3.886 1.131,3.886 0.767,3.809 0.494,3.655 0.222,3.501 0.086,3.285 0.086,3.009 0.086,2.755 0.22,2.565 0.489,2.44 0.661,2.356 1.029,2.258 1.592,2.146 L 3.053,1.852 C 3.693,1.723 4.176,1.551 4.502,1.336 5.008,1.001 5.261,0.517 5.261,-0.116 5.261,-0.765 4.964,-1.305 4.37,-1.736 3.779,-2.164 2.944,-2.377 1.863,-2.377 c -1.104,0 -1.972,0.21 -2.605,0.631 C -1.374,-1.321 -1.69,-0.739 -1.69,0 L 0,0 z"
           inkscape:connector-curvature="0" />
      </g>
      <g
         transform="matrix(3.3105528,0,0,-3.3105528,421.59366,524.84271)"
         id="g3050">
        <path
           id="path3052"
           style="fill:#706f6e;fill-opacity:1;fill-rule:evenodd;stroke:none"
           d="m 0,0 2.007,0 -2.835,-4.436 0,-2.671 -1.771,0 0,2.671 L -5.531,0 -3.444,0 -1.685,-3.096 0,0 z"
           inkscape:connector-curvature="0" />
      </g>
      <g
         transform="matrix(3.3105528,0,0,-3.3105528,431.49219,524.84271)"
         id="g3054">
        <path
           id="path3056"
           style="fill:#706f6e;fill-opacity:1;fill-rule:evenodd;stroke:none"
           d="m 0,0 1.857,0 3.375,-4.962 0,4.962 1.65,0 0,-7.107 -1.771,0 -3.461,5.048 0,-5.048 -1.65,0 L 0,0 z"
           inkscape:connector-curvature="0" />
      </g>
      <g
         transform="matrix(3.3105528,0,0,-3.3105528,480.12487,524.84271)"
         id="g3058">
        <path
           id="path3060"
           style="fill:#706f6e;fill-opacity:1;fill-rule:evenodd;stroke:none"
           d="m 0,0 0,-1.258 -2.536,0 0,-5.849 -1.782,0 0,5.849 -2.547,0 0,1.258 L 0,0 z"
           inkscape:connector-curvature="0" />
      </g>
      <g
         transform="matrix(3.3105528,0,0,-3.3105528,483.51292,548.37246)"
         id="g3062">
        <path
           id="path3064"
           style="fill:#706f6e;fill-opacity:1;fill-rule:evenodd;stroke:none"
           d="m 0,0 0,7.107 1.754,0 0,-2.709 3.312,0 0,2.709 1.759,0 0,-7.107 -1.759,0 0,3.173 -3.312,0 L 1.754,0 0,0 z"
           inkscape:connector-curvature="0" />
      </g>
      <g
         transform="matrix(3.3105528,0,0,-3.3105528,532.45051,529.00903)"
         id="g3066">
        <path
           id="path3068"
           style="fill:#706f6e;fill-opacity:1;fill-rule:evenodd;stroke:none"
           d="m 0,0 -4.485,0 0,-1.509 4.117,0 0,-1.235 -4.117,0 0,-1.827 4.692,0 0,-1.278 -6.422,0 0,7.107 L 0,1.258 0,0 z"
           inkscape:connector-curvature="0" />
      </g>
      <g
         transform="matrix(3.3105528,0,0,-3.3105528,541.94881,541.1091)"
         id="g3070">
        <path
           id="path3072"
           style="fill:#706f6e;fill-opacity:1;fill-rule:evenodd;stroke:none"
           d="m 0,0 c 0.053,-0.325 0.159,-0.568 0.316,-0.728 0.288,-0.293 0.78,-0.439 1.478,-0.439 0.418,0 0.757,0.039 1.018,0.116 0.494,0.148 0.741,0.422 0.741,0.824 0,0.235 -0.122,0.416 -0.368,0.545 C 2.94,0.444 2.555,0.554 2.029,0.651 L 1.133,0.82 c -0.882,0.167 -1.491,0.348 -1.829,0.545 -0.571,0.327 -0.857,0.84 -0.857,1.538 0,0.636 0.277,1.165 0.829,1.586 0.552,0.421 1.362,0.632 2.432,0.632 0.893,0 1.654,-0.2 2.282,-0.598 C 4.623,4.128 4.954,3.552 4.985,2.797 l -1.702,0 C 3.252,3.224 3.03,3.528 2.616,3.708 2.34,3.827 1.997,3.886 1.587,3.886 1.131,3.886 0.767,3.809 0.494,3.655 0.222,3.501 0.086,3.285 0.086,3.009 0.086,2.755 0.22,2.565 0.489,2.44 0.661,2.356 1.029,2.258 1.593,2.146 L 3.053,1.852 C 3.693,1.723 4.176,1.551 4.502,1.336 5.008,1.001 5.261,0.517 5.261,-0.116 5.261,-0.765 4.964,-1.305 4.37,-1.736 3.779,-2.164 2.944,-2.377 1.863,-2.377 c -1.104,0 -1.972,0.21 -2.605,0.631 C -1.374,-1.321 -1.69,-0.739 -1.69,0 L 0,0 z"
           inkscape:connector-curvature="0" />
      </g>
      <g
         transform="matrix(3.3105528,0,0,-3.3105528,569.07349,548.37246)"
         id="g3074">
        <path
           id="path3076"
           style="fill:#706f6e;fill-opacity:1;fill-rule:evenodd;stroke:none"
           d="m 0,0 -1.76,0 0,7.107 1.76,0 L 0,0 z"
           inkscape:connector-curvature="0" />
      </g>
      <g
         transform="matrix(3.3105528,0,0,-3.3105528,572.55622,544.22235)"
         id="g3078">
        <path
           id="path3080"
           style="fill:#706f6e;fill-opacity:1;fill-rule:evenodd;stroke:none"
           d="m 0,0 4.375,4.595 -4.266,0 0,1.259 6.474,0 0,-1.191 L 2.15,0 6.595,0 6.595,-1.254 0,-1.254 0,0 z"
           inkscape:connector-curvature="0" />
      </g>
      <g
         transform="matrix(3.3105528,0,0,-3.3105528,619.09531,529.00903)"
         id="g3082">
        <path
           id="path3084"
           style="fill:#706f6e;fill-opacity:1;fill-rule:evenodd;stroke:none"
           d="m 0,0 -4.485,0 0,-1.509 4.117,0 0,-1.235 -4.117,0 0,-1.827 4.692,0 0,-1.278 -6.422,0 0,7.107 L 0,1.258 0,0 z"
           inkscape:connector-curvature="0" />
      </g>
      <g
         transform="matrix(3.3105528,0,0,-3.3105528,630.21177,528.92892)"
         id="g3086">
        <path
           id="path3088"
           style="fill:#706f6e;fill-opacity:1;fill-rule:evenodd;stroke:none"
           d="m 0,0 0,-1.91 2.007,0 c 0.398,0 0.697,0.039 0.897,0.116 0.352,0.135 0.528,0.402 0.528,0.801 0,0.43 -0.17,0.72 -0.511,0.867 C 2.729,-0.042 2.442,0 2.058,0 L 0,0 z M 3.795,1.051 C 4.117,0.939 4.389,0.773 4.611,0.554 4.795,0.374 4.941,0.175 5.048,-0.044 5.155,-0.262 5.209,-0.511 5.209,-0.791 5.209,-1.129 5.107,-1.461 4.904,-1.789 4.701,-2.114 4.366,-2.344 3.898,-2.479 4.289,-2.61 4.565,-2.799 4.726,-3.043 4.891,-3.284 4.973,-3.654 4.973,-4.152 l 0,-0.477 c 0,-0.325 0.016,-0.545 0.046,-0.661 0.047,-0.183 0.154,-0.318 0.322,-0.405 l 0,-0.178 -1.949,0 C 3.338,-5.716 3.3,-5.589 3.277,-5.492 3.231,-5.293 3.206,-5.089 3.202,-4.88 L 3.191,-4.219 C 3.183,-3.766 3.083,-3.464 2.892,-3.313 2.704,-3.162 2.35,-3.086 1.828,-3.086 l -1.828,0 0,-2.787 -1.731,0 0,7.107 4.157,0 C 3.02,1.225 3.477,1.163 3.795,1.051 z"
           inkscape:connector-curvature="0" />
      </g>
    </g>
  </g>
</svg>
