<?xml version="1.0" encoding="UTF-8" standalone="no"?>
<!-- Created with Inkscape (http://www.inkscape.org/) -->

<svg
   xmlns:dc="http://purl.org/dc/elements/1.1/"
   xmlns:cc="http://creativecommons.org/ns#"
   xmlns:rdf="http://www.w3.org/1999/02/22-rdf-syntax-ns#"
   xmlns:svg="http://www.w3.org/2000/svg"
   xmlns="http://www.w3.org/2000/svg"
   xmlns:sodipodi="http://sodipodi.sourceforge.net/DTD/sodipodi-0.dtd"
   xmlns:inkscape="http://www.inkscape.org/namespaces/inkscape"
   width="28mm"
   height="28mm"
   viewBox="0 0 99.212596 99.212598"
   id="svg4159"
   version="1.1"
   inkscape:version="0.91 r13725"
   sodipodi:docname="bigglesworth_logo.svg">
  <defs
     id="defs4161" />
  <sodipodi:namedview
     id="base"
     pagecolor="#ffffff"
     bordercolor="#666666"
     borderopacity="1.0"
     inkscape:pageopacity="0.0"
     inkscape:pageshadow="2"
     inkscape:zoom="0.95019531"
     inkscape:cx="144.21834"
     inkscape:cy="-127.7769"
     inkscape:document-units="px"
     inkscape:current-layer="layer1"
     showgrid="false"
     fit-margin-top="0"
     fit-margin-left="0"
     fit-margin-right="0"
     fit-margin-bottom="0"
     inkscape:window-width="1440"
     inkscape:window-height="852"
     inkscape:window-x="1280"
     inkscape:window-y="0"
     inkscape:window-maximized="1" />
  <metadata
     id="metadata4164">
    <rdf:RDF>
      <cc:Work
         rdf:about="">
        <dc:format>image/svg+xml</dc:format>
        <dc:type
           rdf:resource="http://purl.org/dc/dcmitype/StillImage" />
        <dc:title></dc:title>
      </cc:Work>
    </rdf:RDF>
  </metadata>
  <g
     inkscape:label="Livello 1"
     inkscape:groupmode="layer"
     id="layer1"
     transform="translate(-26.613113,-305.37269)">
    <g
       transform="matrix(1.140749,0,0,0.87661702,66.150055,-90.932754)"
       style="font-style:normal;font-variant:normal;font-weight:bold;font-stretch:normal;font-size:136.88987732px;line-height:125%;font-family:OPTIAlpine-Bold;-inkscape-font-specification:'OPTIAlpine-Bold Bold';letter-spacing:0px;word-spacing:0px;display:inline;fill:#000000;fill-opacity:1;stroke:none;stroke-width:1px;stroke-linecap:butt;stroke-linejoin:miter;stroke-opacity:1"
       id="text4211">
      <path
         d="m -4.0037715,486.04341 c -7.9311005,-17.86566 -30.2644405,-31.97717 -30.2644405,-31.97717 0,0 2.627221,50.76786 6.574628,61.12133 -4.662225,3.93675 -6.574628,12.02838 -6.574628,12.02838 l 0,34.44573 29.1575443,0 0,-7.80272 c 6.5707141,6.16004 10.5405205,7.93961 16.1530057,9.03473 8.213392,1.50579 21.6286,-1.3689 29.294434,-8.89784 12.320089,-12.04631 13.004538,-29.97888 10.26674,-42.57275 -2.600907,-12.1832 -9.719181,-24.09262 -23.955728,-27.65176 -9.034732,-2.32713 -23.681949,0.13689 -31.7584517,9.4454 l -10.0727553,9.08897 -2.379827,-3.80992 c 0,0 -10.011023,-19.17784 -7.373128,-21.46213 2.637896,-2.28429 17.9247108,12.32497 20.9326065,9.00975 z m 28.7841495,14.73582 c 7.800886,-0.35139 13.278318,8.2134 13.141428,17.79569 0,9.71918 0.09097,12.33641 -7.711749,12.06263 -8.076502,-0.27378 -13.278317,-8.21339 -13.141427,-17.79568 0.136889,-9.99296 0.31739,-11.72956 7.711748,-12.06264 z"
         id="path4222"
         inkscape:connector-curvature="0"
         sodipodi:nodetypes="ccccccccccccccscscccs" />
    </g>
  </g>
</svg>
