<?xml version="1.0" encoding="UTF-8" standalone="no"?>
<!-- Created with Inkscape (http://www.inkscape.org/) -->

<svg
   xmlns:dc="http://purl.org/dc/elements/1.1/"
   xmlns:cc="http://creativecommons.org/ns#"
   xmlns:rdf="http://www.w3.org/1999/02/22-rdf-syntax-ns#"
   xmlns:svg="http://www.w3.org/2000/svg"
   xmlns="http://www.w3.org/2000/svg"
   xmlns:sodipodi="http://sodipodi.sourceforge.net/DTD/sodipodi-0.dtd"
   xmlns:inkscape="http://www.inkscape.org/namespaces/inkscape"
   width="319.66327mm"
   height="35.944675mm"
   viewBox="0 0 1132.6651 127.36303"
   id="svg4193"
   version="1.1"
   inkscape:version="0.91 r13725"
   sodipodi:docname="bigglesworth_textonly_gray.svg">
  <defs
     id="defs4195" />
  <sodipodi:namedview
     id="base"
     pagecolor="#ffffff"
     bordercolor="#666666"
     borderopacity="1.0"
     inkscape:pageopacity="0.0"
     inkscape:pageshadow="2"
     inkscape:zoom="1.3437791"
     inkscape:cx="494.09847"
     inkscape:cy="182.20147"
     inkscape:document-units="px"
     inkscape:current-layer="g5409"
     showgrid="false"
     fit-margin-top="1"
     fit-margin-left="1"
     fit-margin-right="1"
     fit-margin-bottom="1"
     inkscape:window-width="1440"
     inkscape:window-height="852"
     inkscape:window-x="1280"
     inkscape:window-y="0"
     inkscape:window-maximized="1" />
  <metadata
     id="metadata4198">
    <rdf:RDF>
      <cc:Work
         rdf:about="">
        <dc:format>image/svg+xml</dc:format>
        <dc:type
           rdf:resource="http://purl.org/dc/dcmitype/StillImage" />
        <dc:title />
      </cc:Work>
    </rdf:RDF>
  </metadata>
  <g
     inkscape:label="Base"
     inkscape:groupmode="layer"
     id="layer1"
     transform="translate(42.634736,-394.49889)"
     style="display:none"
     sodipodi:insensitive="true">
    <text
       xml:space="preserve"
       style="font-style:normal;font-variant:normal;font-weight:bold;font-stretch:normal;font-size:136.88987732px;line-height:125%;font-family:OPTIAlpine-Bold;-inkscape-font-specification:'OPTIAlpine-Bold Bold';letter-spacing:0px;word-spacing:0px;fill:#000000;fill-opacity:1;stroke:none;stroke-width:1px;stroke-linecap:butt;stroke-linejoin:miter;stroke-opacity:1"
       x="-45.082512"
       y="561.66168"
       id="text4201"
       sodipodi:linespacing="125%"
       transform="scale(1.140749,0.87661702)"><tspan
         sodipodi:role="line"
         x="-45.082512"
         y="561.66168"
         id="tspan4205">bigglesworth</tspan></text>
  </g>
  <g
     style="display:none"
     transform="translate(42.634736,-394.49889)"
     id="g4215"
     inkscape:groupmode="layer"
     inkscape:label="Base senza b"
     sodipodi:insensitive="true">
    <text
       transform="scale(1.140749,0.87661702)"
       sodipodi:linespacing="125%"
       id="text4217"
       y="561.66168"
       x="53.068977"
       style="font-style:normal;font-variant:normal;font-weight:bold;font-stretch:normal;font-size:136.88987732px;line-height:125%;font-family:OPTIAlpine-Bold;-inkscape-font-specification:'OPTIAlpine-Bold Bold';letter-spacing:0px;word-spacing:0px;fill:#e6e6e6;fill-opacity:1;stroke:none;stroke-width:1px;stroke-linecap:butt;stroke-linejoin:miter;stroke-opacity:1"
       xml:space="preserve"><tspan
         id="tspan4219"
         y="561.66168"
         x="53.068977"
         sodipodi:role="line">igglesworth</tspan></text>
  </g>
  <g
     inkscape:label="Base senza b copia"
     inkscape:groupmode="layer"
     id="g5409"
     transform="translate(42.634736,-394.49889)"
     style="display:inline">
    <g
       transform="scale(1.140749,0.87661702)"
       style="font-style:normal;font-variant:normal;font-weight:bold;font-stretch:normal;font-size:136.88987732px;line-height:125%;font-family:OPTIAlpine-Bold;-inkscape-font-specification:'OPTIAlpine-Bold Bold';letter-spacing:0px;word-spacing:0px;fill:#e6e6e6;fill-opacity:1;stroke:none;stroke-width:1px;stroke-linecap:butt;stroke-linejoin:miter;stroke-opacity:1"
       id="text5411">
      <path
         d="m 63.883278,454.06624 0,20.39659 29.157544,0 0,-20.39659 -29.157544,0 z m 0,30.38955 0,77.20589 29.157544,0 0,-77.20589 -29.157544,0 z"
         style=""
         id="path5416" />
      <path
         d="m 133.01076,521.27917 c 0,-9.99296 5.47559,-16.15301 13.5521,-16.15301 8.21339,0 13.5521,7.66584 13.5521,17.38502 0,9.17162 -6.57072,16.01611 -14.51033,16.01611 -7.66583,0 -12.59387,-6.84449 -12.59387,-17.24812 z m 15.33167,50.64925 c -4.24359,0.41067 -8.76096,-1.91646 -10.54052,-5.47559 l -27.65176,0 c 2.19024,10.54052 7.80272,18.06946 16.56368,21.76549 11.36186,4.65425 35.72825,4.24358 46.67944,-3.01158 13.68899,-9.03473 14.37344,-26.41975 14.37344,-37.91849 l 0,-61.18978 -27.65175,0 0,8.62406 C 154.63936,486.09847 146.0153,482.95 136.29612,482.95 c -18.06947,0 -32.57979,17.6588 -32.57979,38.87673 0.13689,21.35482 11.90942,37.7816 33.12735,38.19227 7.80272,0.13689 14.92099,-2.73779 21.76549,-6.7076 0,6.98138 0.13689,10.40363 -1.50579,13.14143 -1.77957,2.87469 -5.06493,5.06492 -8.76095,5.47559 z"
         style=""
         id="path5418" />
      <path
         d="m 228.15022,521.27917 c 0,-9.99296 5.4756,-16.15301 13.5521,-16.15301 8.21339,0 13.5521,7.66584 13.5521,17.38502 0,9.17162 -6.57072,16.01611 -14.51033,16.01611 -7.66583,0 -12.59387,-6.84449 -12.59387,-17.24812 z m 15.33167,50.64925 c -4.24359,0.41067 -8.76095,-1.91646 -10.54052,-5.47559 l -27.65176,0 c 2.19024,10.54052 7.80272,18.06946 16.56368,21.76549 11.36186,4.65425 35.72825,4.24358 46.67945,-3.01158 13.68898,-9.03473 14.37343,-26.41975 14.37343,-37.91849 l 0,-61.18978 -27.65175,0 0,8.62406 C 249.77882,486.09847 241.15476,482.95 231.43558,482.95 c -18.06947,0 -32.57979,17.6588 -32.57979,38.87673 0.13689,21.35482 11.90942,37.7816 33.12735,38.19227 7.80272,0.13689 14.92099,-2.73779 21.76549,-6.7076 0,6.98138 0.13689,10.40363 -1.50579,13.14143 -1.77957,2.87469 -5.06493,5.06492 -8.76095,5.47559 z"
         style=""
         id="path5420" />
      <path
         d="m 297.4175,454.06624 0,107.59544 29.15754,0 0,-107.59544 -29.15754,0 z"
         style=""
         id="path5422" />
      <path
         d="m 381.74298,482.95 c -26.28286,0 -42.43586,16.01612 -43.80476,36.96027 -1.50579,22.17616 15.74233,41.75141 39.42428,42.98342 20.67037,1.09512 39.56118,-7.80272 44.48921,-26.00908 l -28.47309,0 c -3.83292,4.79115 -8.2134,5.88627 -11.90942,5.88627 -6.98139,0 -14.37344,-4.65426 -14.37344,-11.90942 l 56.12485,0 c 0,-29.97888 -15.19478,-47.63768 -41.47763,-47.91146 z m 12.04631,32.85357 -26.69353,0 c 0,-7.39205 6.29693,-12.59387 13.68899,-12.59387 6.57071,0 13.00454,4.65426 13.00454,12.59387 z"
         style=""
         id="path5424" />
      <path
         d="m 462.78307,506.35817 c -0.68445,-1.09512 -0.68445,-2.7378 0.54756,-4.10669 1.50579,-1.64268 5.61249,-3.14847 10.26674,-2.19024 4.24359,0.68445 7.52895,3.01157 8.07651,7.80272 l 26.69352,0 c 0,-6.02315 -3.28535,-11.49875 -5.47559,-14.37344 -9.4454,-11.63564 -30.93712,-10.8143 -37.64472,-10.26674 -9.30851,0.82134 -22.44994,3.69603 -28.60998,14.09966 -3.55914,6.16004 -4.24359,13.27832 -0.95823,19.43836 5.06492,10.12985 16.01611,11.49875 26.9673,13.68899 5.4756,0.82134 18.20636,1.64268 19.0277,6.84449 0.54756,1.64268 0.41067,9.5823 -12.73076,7.11828 -5.06493,-1.50579 -6.70761,-3.96981 -7.52895,-9.58229 l -28.3362,-0.82134 c 0,6.43382 0.54756,10.67741 4.92804,16.28989 9.71918,12.73076 29.56821,13.27832 39.56117,12.59387 9.30851,-0.68445 24.22951,-3.55914 30.66333,-14.37344 3.83292,-6.16004 4.38048,-14.7841 1.3689,-21.6286 -5.06492,-11.49875 -18.48013,-13.68898 -32.30601,-16.153 0,0 -13.14143,-1.77957 -14.51033,-4.38048 z"
         style=""
         id="path5426" />
      <path
         d="m 513.02007,484.45579 24.22951,77.20589 29.43132,0 11.77253,-39.1505 11.36186,39.1505 30.25266,0 25.32463,-77.20589 -30.25266,0 -12.73076,38.05539 -10.8143,-38.05539 -26.14597,0 -11.63564,38.32917 -10.95119,-38.32917 -29.84199,0 z"
         style=""
         id="path5428" />
      <path
         d="m 690.841,482.95 c -25.05085,0 -42.98342,16.42679 -43.94165,38.19228 -0.82134,22.03927 17.5219,42.02519 41.34074,42.02519 l 3.14847,0 c 23.81884,0 42.29897,-19.98592 41.34074,-42.02519 C 731.77107,499.78746 713.42783,482.95 690.841,482.95 Z m -14.78411,40.10874 c 0,-11.49875 4.1067,-19.84904 14.23655,-19.84904 8.89784,0 13.14143,9.30852 13.14143,19.84904 0,10.67741 -4.24359,20.2597 -13.14143,20.2597 -10.40363,0 -14.37344,-9.4454 -14.23655,-20.2597 z"
         style=""
         id="path5430" />
      <path
         d="m 801.03545,509.09597 0,-24.64018 c -9.58229,-2.32713 -18.61703,0.41067 -27.24109,9.71918 l -1.77957,-9.71918 -27.37797,0 0,77.20589 29.15754,0 0,-35.59137 c 0.41067,-5.61248 2.32713,-10.54052 6.29694,-13.55209 3.42224,-2.7378 8.35028,-3.42225 12.32008,-3.42225 l 8.62407,0 z"
         style=""
         id="path5432" />
      <path
         d="m 846.89165,462.96408 -29.15755,0 0,23.95573 -10.40363,0 0,16.97434 10.40363,0 0,29.02066 c 0,2.46402 -0.95823,19.57525 6.8445,25.5984 7.39205,5.88627 24.77707,5.4756 35.72826,3.01158 l 0,-22.03927 c -4.51737,1.23201 -13.5521,2.32713 -13.5521,-7.66583 l 0,-27.65176 13.68899,0 0,-17.11123 -13.5521,0 0,-24.09262 z"
         style=""
         id="path5434" />
      <path
         d="m 900.278,492.3954 0,-38.32916 -29.15754,0 0,107.59544 29.15754,0 0,-41.75141 c 0,-7.66583 5.06493,-11.90942 11.08808,-11.90942 6.98139,0 10.54052,4.92804 10.54052,12.04631 l 0,41.61452 30.52645,0 0,-49.28035 c 0,-14.78411 -10.26674,-29.43133 -25.05085,-29.43133 -10.40363,0 -19.43836,4.1067 -26.83042,9.30851 l -0.27378,0.13689 z"
         style=""
         id="path5436" />
    </g>
  </g>
  <g
     transform="translate(42.634736,-394.49889)"
     id="g4209"
     inkscape:groupmode="layer"
     inkscape:label="B"
     style="display:inline">
    <g
       transform="scale(1.140749,0.87661702)"
       style="font-style:normal;font-variant:normal;font-weight:bold;font-stretch:normal;font-size:136.88987732px;line-height:125%;font-family:OPTIAlpine-Bold;-inkscape-font-specification:'OPTIAlpine-Bold Bold';letter-spacing:0px;word-spacing:0px;fill:#d0d0d0;fill-opacity:1;stroke:none;stroke-width:1px;stroke-linecap:butt;stroke-linejoin:miter;stroke-opacity:1"
       id="text4211">
      <path
         d="m -4.0037715,486.04341 c -7.9311005,-17.86566 -30.2644405,-31.97717 -30.2644405,-31.97717 0,0 2.627221,50.76786 6.574628,61.12133 -4.662225,3.93675 -6.574628,12.02838 -6.574628,12.02838 l 0,34.44573 29.1575443,0 0,-7.80272 c 6.5707141,6.16004 10.5405205,7.93961 16.1530057,9.03473 8.213392,1.50579 21.6286,-1.3689 29.294434,-8.89784 12.320089,-12.04631 13.004538,-29.97888 10.26674,-42.57275 -2.600907,-12.1832 -9.719181,-24.09262 -23.955728,-27.65176 -9.034732,-2.32713 -23.681949,0.13689 -31.7584517,9.4454 l -10.0727553,9.08897 -2.379827,-3.80992 c 0,0 -10.011023,-19.17784 -7.373128,-21.46213 2.637896,-2.28429 17.9247108,12.32497 20.9326065,9.00975 z m 28.7841495,14.73582 c 7.800886,-0.35139 13.278318,8.2134 13.141428,17.79569 0,9.71918 0.09097,12.33641 -7.711749,12.06263 -8.076502,-0.27378 -13.278317,-8.21339 -13.141427,-17.79568 0.136889,-9.99296 0.31739,-11.72956 7.711748,-12.06264 z"
         id="path4222"
         inkscape:connector-curvature="0"
         sodipodi:nodetypes="ccccccccccccccscscccs"
         style="fill:#e6e6e6;fill-opacity:1" />
    </g>
  </g>
</svg>
