<?xml version="1.0" encoding="UTF-8" standalone="no"?>
<svg width="144pt" xml:space="preserve" xmlns="http://www.w3.org/2000/svg" viewBox="0 0 144 144" height="144pt">
	<g stroke-width="0" fill="#fff">
		<path d="m144 144h-144v-144h144v144z" fill="none"/>
		<path opacity=".2" d="m143.13 99.64l-0.018-4.848-2.863-2.229s-2.715-2.174-3.678-2.945c-0.115-1.471-0.55-7.043-0.55-7.043l-0.235-3.461-5.27-4.076-11.354-8.451-1.643 0.558c-1.332-1.002-2.876-2.162-4.648-3.494l-0.123-1.813-5.269-4.076-11.355-8.451-1.618 0.55c-1.364-1.024-2.745-2.062-4.128-3.1l-0.127-1.867-5.27-4.076-11.355-8.451-1.639 0.557c-4.434-3.347-7.516-5.689-8.004-6.101-1.182-0.998-2.954-1.195-4.319-0.468l0.052-0.027c-1.23 0.618-12.945 5.394-22.358 9.23-14.737 6.007-19.142 7.82-19.938 8.258-1.21 0.667-1.961 1.93-1.958 3.313l0.038 14.949-4.259 2.067s0.329 18.254 0.358 19.923c-1.044 0.514-6.213 3.059-6.213 3.059l-0.326 5.436 11.341 11.096 9.795-4.847s0.586-1.089 0.645-1.198c0.087-0.139 1.384-2.225 1.384-2.225s0.693-4.377 1.338-8.443l0.364 0.33c0.1 5.517 0.24 13.291 0.259 14.354-1.044 0.514-6.214 3.059-6.214 3.059l-0.326 5.436 11.34 11.096 9.796-4.848s0.586-1.088 0.646-1.198c0.086-0.139 1.384-2.224 1.384-2.224s0.769-4.85 1.439-9.083l1.386 1.255c0.099 5.508 0.237 13.174 0.257 14.228-1.044 0.515-6.213 3.06-6.213 3.06l-0.327 5.436 11.341 11.094 9.794-4.846s0.586-1.089 0.646-1.199c0.087-0.139 1.384-2.224 1.384-2.224s0.755-4.767 1.422-8.974l7.496 6.787c1.178 1.066 2.953 1.271 4.358 0.529l45.428-23.983c1.245-0.657 1.981-1.915 1.976-3.322l-0.009-1.979 7.235 5.781 8.705-5.869zm-7.69-7.289l-1.607-1.286-0.168-2.156 0.168 2.156 1.607 1.286zm-2.31-11.688l-4.35-3.385-1.725-1.369v-0.001l1.723 1.368 4.352 3.387z" fill="#000030"/>
		<g>
			<g>
				<linearGradient id="aigrd1" y2="93.892" gradientUnits="userSpaceOnUse" x2="125.84" gradientTransform="matrix(.9988 -.05 .05 .9988 4.8774 1.0598)" y1="93.892" x1="110.93">
					<stop stop-color="#FFFFE1" offset="0"/>
					<stop stop-color="#FFB800" offset="1"/>
				</linearGradient>
				<path d="m120.22 86.378l9.936 8.158 5.239-3.188-10.042-8.04-5.133 3.069z" fill="url(#aigrd1)"/>
				<linearGradient id="aigrd2" y2="74.259" gradientUnits="userSpaceOnUse" x2="113.88" gradientTransform="matrix(1.0736 -.0537 .0541 1.082 2.6032 6.2865)" y1="74.259" x1="100.85">
					<stop stop-color="#FFFFE1" offset="0"/>
					<stop stop-color="#FFB800" offset="1"/>
				</linearGradient>
				<path d="m116.96 86.945l-0.744-1.843-2.153-20.509 14.126 11.214-0.32 17.209 1.854 4.127-12.762-10.198z" fill="url(#aigrd2)"/>
				<path d="m107.4 67.259l14.082 11.236 6.8-2.682-14.231-11.07-6.65 2.516z"/>
				<linearGradient id="aigrd3" y2="86.498" gradientUnits="userSpaceOnUse" x2="135.43" y1="86.498" x1="121.48">
					<stop stop-color="#FFAE00" offset="0"/>
					<stop stop-color="#4C1C00" offset="1"/>
				</linearGradient>
				<path d="m121.48 78.495l6.7-2.643 1.283 16.424 0.77 1.9 5.168-3.144 0.026 2.261-5.71 3.85-2.283-4.014-1.478-13.98-4.47 1.793-0.007-2.447z" fill="url(#aigrd3)"/>
				<linearGradient id="aigrd4" y2="81.199" gradientUnits="userSpaceOnUse" x2="135.43" y1="81.199" x1="107.4">
					<stop stop-color="#FFAE00" offset="0"/>
					<stop stop-color="#4C1C00" offset="1"/>
				</linearGradient>
				<path d="m114.31 61.738l11.355 8.451 5.268 4.076 0.236 3.461s0.435 5.572 0.55 7.045c0.964 0.771 3.677 2.943 3.677 2.943l2.865 2.23 0.017 4.846-8.706 5.87-14.971-11.964-1.172-2.902s-0.956-9.102-1.156-11.014c-1.429-1.141-10.541-8.412-10.541-8.412l9.291-3.514 3.287-1.117zm21.09 29.295l-0.224 0.136-6.188-4.953-0.808-10.338v-0.026l0.098-0.038-4.354-3.386-9.868-7.834 0.019 0.173-0.028-0.022-6.65 2.516 7.575 6.044 1.238 11.799 0.744 1.843 12.762 10.198 5.71-3.85-0.026-2.261z" fill="url(#aigrd4)"/>
			</g>
			<g>
				<linearGradient id="aigrd5" y2="75.485" gradientUnits="userSpaceOnUse" x2="103.69" gradientTransform="matrix(.9988 -.05 .05 .9988 4.8774 1.0598)" y1="75.485" x1="88.788">
					<stop stop-color="#FFFFE1" offset="0"/>
					<stop stop-color="#FFB800" offset="1"/>
				</linearGradient>
				<path d="m97.187 69.102l9.936 8.158 5.24-3.187-10.042-8.041-5.134 3.069z" fill="url(#aigrd5)"/>
				<linearGradient id="aigrd6" y2="57.27" gradientUnits="userSpaceOnUse" x2="93.282" gradientTransform="matrix(1.0736 -.0537 .0541 1.082 2.6032 6.2865)" y1="57.27" x1="80.245">
					<stop stop-color="#FFFFE1" offset="0"/>
					<stop stop-color="#FFB800" offset="1"/>
				</linearGradient>
				<path d="m93.917 69.669l-0.745-1.843-2.152-20.509 14.125 11.214-0.319 17.208 1.854 4.128-12.753-10.198z" fill="url(#aigrd6)"/>
				<path d="m84.359 49.983l14.082 11.236 6.8-2.681-14.23-11.07-6.651 2.515z"/>
				<linearGradient id="aigrd7" y2="69.223" gradientUnits="userSpaceOnUse" x2="112.39" y1="69.223" x1="98.441">
					<stop stop-color="#FFAE00" offset="0"/>
					<stop stop-color="#4C1C00" offset="1"/>
				</linearGradient>
				<path d="m98.441 61.219l6.701-2.643 1.28 16.424 0.77 1.901 5.168-3.144 0.025 2.26-5.709 3.851-2.283-4.014-1.478-13.982-4.47 1.795-0.008-2.448z" fill="url(#aigrd7)"/>
				<linearGradient id="aigrd8" y2="63.923" gradientUnits="userSpaceOnUse" x2="112.39" y1="63.923" x1="84.361">
					<stop stop-color="#FFAE00" offset="0"/>
					<stop stop-color="#4C1C00" offset="1"/>
				</linearGradient>
				<path d="m91.274 44.462l11.355 8.451 5.269 4.076 0.235 3.461s0.436 5.572 0.551 7.043c0.963 0.772 3.677 2.944 3.677 2.944l2.864 2.229 0.018 4.848-8.706 5.869-14.974-11.962-1.172-2.902s-0.956-9.103-1.156-11.015c-1.43-1.14-10.542-8.412-10.542-8.412l9.291-3.514 3.287-1.116zm21.086 29.296l-0.225 0.136-6.187-4.954-0.808-10.338v-0.026l0.097-0.038-4.353-3.386-9.868-7.834 0.019 0.173-0.028-0.022-6.651 2.515 7.575 6.044 1.238 11.799 0.745 1.843 12.762 10.199 5.709-3.851-0.025-2.26z" fill="url(#aigrd8)"/>
			</g>
			<g>
				<linearGradient id="aigrd9" y2="57.44" gradientUnits="userSpaceOnUse" x2="82.073" gradientTransform="matrix(.9988 -.05 .05 .9988 4.8774 1.0598)" y1="57.44" x1="67.166">
					<stop stop-color="#FFFFE1" offset="0"/>
					<stop stop-color="#FFB800" offset="1"/>
				</linearGradient>
				<path d="m74.689 52.158l9.936 8.158 5.24-3.188-10.042-8.04-5.134 3.069z" fill="url(#aigrd9)"/>
				<linearGradient id="aigrd10" y2="40.611" gradientUnits="userSpaceOnUse" x2="73.166" gradientTransform="matrix(1.0736 -.0537 .0541 1.082 2.6032 6.2865)" y1="40.611" x1="60.129">
					<stop stop-color="#FFFFE1" offset="0"/>
					<stop stop-color="#FFB800" offset="1"/>
				</linearGradient>
				<path d="m71.419 52.726l-0.744-1.843-2.152-20.509 14.125 11.214-0.32 17.208 1.854 4.127-12.763-10.197z" fill="url(#aigrd10)"/>
				<path d="m61.861 33.04l14.082 11.235 6.8-2.681-14.23-11.07-6.651 2.516z"/>
				<linearGradient id="aigrd11" y2="52.278" gradientUnits="userSpaceOnUse" x2="89.891" y1="52.278" x1="75.943">
					<stop stop-color="#FFAE00" offset="0"/>
					<stop stop-color="#4C1C00" offset="1"/>
				</linearGradient>
				<path d="m75.943 44.275l6.701-2.642 1.283 16.424 0.77 1.901 5.168-3.144 0.026 2.26-5.71 3.85-2.283-4.013-1.478-13.982-4.47 1.794-0.008-2.448z" fill="url(#aigrd11)"/>
				<linearGradient id="aigrd12" y2="46.98" gradientUnits="userSpaceOnUse" x2="89.894" y1="46.98" x1="61.862">
					<stop stop-color="#FFAE00" offset="0"/>
					<stop stop-color="#4C1C00" offset="1"/>
				</linearGradient>
				<path d="m68.776 27.519l11.355 8.451 5.269 4.076 0.236 3.461s0.435 5.572 0.549 7.044c0.965 0.771 3.678 2.944 3.678 2.944l2.864 2.229 0.018 4.846-8.706 5.87-14.972-11.963-1.171-2.902s-0.956-9.103-1.156-11.015c-1.429-1.14-10.542-8.411-10.542-8.411l9.292-3.514 3.287-1.117zm21.089 29.294l-0.225 0.137-6.186-4.954-0.809-10.338v-0.026l0.097-0.038-4.353-3.386-9.868-7.834 0.018 0.173-0.028-0.022-6.651 2.516 7.575 6.044 1.239 11.799 0.744 1.843 12.762 10.198 5.71-3.85-0.026-2.26z" fill="url(#aigrd12)"/>
			</g>
		</g>
		<path d="m14.394 42.281c0 1.741 0.064 24.125 0.064 25.429 0.96 0.876 57.135 51.722 58.678 53.132 1.836-1.001 43.896-23.151 45.43-23.984 0-1.752-0.104-24.117-0.104-25.428-0.97-0.877-60.272-45.204-61.821-46.612-1.831 1.01-40.727 16.625-42.246 17.463z"/>
		<linearGradient id="aigrd13" y2="122.72" gradientUnits="userSpaceOnUse" x2="59.021" y1="122.72" x1="59.021">
			<stop stop-color="#FFFFE1" offset="0"/>
			<stop stop-color="#FFB800" offset="1"/>
		</linearGradient>
		<path d="m59.021 122.72" fill="url(#aigrd13)"/>
		<path stroke-width="1" d="m20.399 54.962" stroke="#000"/>
		<path stroke-width="1" d="m71.144 99.011" stroke="#000"/>
		<path stroke-width="1" d="m117.31 71.981" stroke="#000"/>
		<path stroke-width="1" d="m66.882 26.915" stroke="#000"/>
		<linearGradient id="aigrd14" y2="114.79" gradientUnits="userSpaceOnUse" x2="119.89" y1="-14.248" x1="-46.78">
			<stop stop-color="#fff" offset="0"/>
			<stop stop-color="#36364C" offset="1"/>
		</linearGradient>
		<path d="m59.132 21.975c1.323 1.115 21.635 16.364 36.467 27.499 20.898 15.688 24.934 18.731 25.399 19.152 0.788 0.713 1.239 1.741 1.245 2.804l0.104 25.428c0.006 1.407-0.73 2.664-1.975 3.322l-45.428 23.982c-1.405 0.742-3.181 0.538-4.359-0.529l-58.677-53.13c-0.789-0.714-1.229-1.728-1.232-2.793l-0.064-25.429c-0.004-1.382 0.747-2.646 1.958-3.313 0.795-0.438 5.201-2.251 19.938-8.258 9.413-3.836 21.127-8.612 22.358-9.23l-0.052 0.028c1.365-0.728 3.137-0.53 4.319 0.468zm-44.738 20.306c0 0.141 0.064 22.524 0.064 25.429 0.96 0.876 57.135 51.722 58.678 53.132 1.836-1.001 43.896-23.151 45.43-23.984 0-1.752-0.104-24.117-0.104-25.428-0.97-0.877-60.272-45.204-61.821-46.612-1.831 1.01-40.727 16.625-42.246 17.463z" fill="url(#aigrd14)"/>
		<linearGradient id="aigrd15" y2="106.86" gradientUnits="userSpaceOnUse" x2="67.66" y1="88.609" x1="115.06">
			<stop stop-color="#fff" offset="0"/>
			<stop stop-color="#4B4B73" offset="1"/>
		</linearGradient>
		<path d="m75.171 99.623l-0.035 18.689 41.854-21.761v-23.014l-12.977 6.604-0.022 7.913-13.865 7.328 0.008-8.178-12.666 6.443s-1.465 1.039-1.896 2.812c-0.43 1.774-0.398 3.166-0.398 3.166z" fill="url(#aigrd15)"/>
		<linearGradient id="aigrd16" y2="118.63" gradientUnits="userSpaceOnUse" x2="69.04" y1="36.283" x1="66.248">
			<stop stop-color="#fff" offset="0"/>
			<stop stop-color="#4B4B73" offset="1"/>
		</linearGradient>
		<path d="m56.64 26.086l60.35 45.716-13.322 7.138s-7.119-5.336-8.018-5.971c-0.898-0.634-5.568-4.916-12.281-1.365-5.288 3.07-1.023 7.506-1.023 7.506l7.506 6.652-12.398 6.279s-2.023 0.68-3.316 0.563c-1.295-0.121-2.875-1.428-2.875-1.428l-54.337-48.472 39.712-16.618z" fill="url(#aigrd16)"/>
		<linearGradient id="aigrd17" y2="71.006" gradientUnits="userSpaceOnUse" x2="90.117" y1="91.38" x1="96.926">
			<stop stop-color="#fff" offset="0"/>
			<stop stop-color="#DCDCE4" offset=".1023"/>
			<stop stop-color="#B0B0C2" offset=".2513"/>
			<stop stop-color="#8C8CA5" offset=".4021"/>
			<stop stop-color="#6F6F8F" offset=".5524"/>
			<stop stop-color="#5B5B80" offset=".7024"/>
			<stop stop-color="#4F4F76" offset=".8517"/>
			<stop stop-color="#4B4B73" offset="1"/>
		</linearGradient>
		<path d="m84.32 73.239h-0.002c-1.023 0.596-1.592 1.24-1.689 1.92-0.012 0.08-0.018 0.162-0.018 0.246 0 0.825 0.544 1.754 1.052 2.346 0.132 0.115 8.528 7.498 8.528 7.498s0.034 4.709 0.049 6.708c2.043-1.079 9.098-4.808 9.908-5.235 0.001-0.908 0.008-5.78 0.01-6.549-0.693-0.516-7.709-5.741-7.709-5.741-0.029-0.043-0.412-0.315-0.412-0.315-1.625-1.176-5.004-3.624-9.717-0.877z" fill="url(#aigrd17)"/>
		<linearGradient id="aigrd18" y2="136.01" gradientUnits="userSpaceOnUse" x2="81.652" y1="47.14" x1="20.673">
			<stop stop-color="#fff" offset="0"/>
			<stop stop-color="#4B4B73" offset="1"/>
		</linearGradient>
		<path d="m72.562 98.98l0.035 18.69-56.936-51.308v-22.391l54.684 49.032s1.416 1.037 1.832 2.811c0.416 1.775 0.386 3.167 0.386 3.167z" fill="url(#aigrd18)"/>
		<linearGradient id="aigrd19" y2="106.56" gradientUnits="userSpaceOnUse" x2="85.87" y1="20.898" x1="85.87">
			<stop stop-color="#fff" offset="0"/>
			<stop stop-color="#4B4B73" offset="1"/>
		</linearGradient>
		<path d="m66.252 56.538c15.441-10.4-10.114-24.625-9.612-29.043l58.459 44.485-11.09 5.595-8.359-6.312s-6.068-4.599-13.135-0.853c-6.994 3.924-1.535 9.723-1.535 9.723l6.652 5.629-12.725 6.156s-25.187-24.247-8.655-35.381z" fill="url(#aigrd19)"/>
		<g>
			<g>
				<linearGradient id="aigrd20" y2="111.81" gradientUnits="userSpaceOnUse" x2="69.8" y1="111.81" x1="38.503">
					<stop stop-color="#FFAE00" offset="0"/>
					<stop stop-color="#4C1C00" offset="1"/>
				</linearGradient>
				<path d="m55.067 89.538l14.733 13.502-0.22 5.152s-5.348 2.645-5.553 2.746c-0.378 2.389-2.358 14.881-2.358 14.881s-1.297 2.084-1.384 2.223c-0.06 0.111-0.646 1.199-0.646 1.199l-9.795 4.848-11.341-11.096 0.327-5.436 6.213-3.059c-0.031-1.668-0.359-19.924-0.359-19.924l8.649-4.197 1.734-0.842zm-0.496 3.394l12.339 11.308-0.092 2.155c-2.143 1.061-4.635 2.293-5.363 2.653-0.271 1.71-2.498 15.761-2.498 15.761l-1.128 1.813-0.259 0.481-7.181 3.554-8.977-8.783 0.152-2.498s4.651-2.296 5.401-2.66c0.142-0.203 0.93-1.344 0.93-1.344l-0.343-19.034 7.019-3.406z" fill="url(#aigrd20)"/>
				<linearGradient id="aigrd21" y2="107.92" gradientUnits="userSpaceOnUse" x2="83.903" gradientTransform="matrix(.9993 .037 -.037 .9993 -1.43 1.8062)" y1="107.92" x1="53.175">
					<stop stop-color="#FFAE00" offset="0"/>
					<stop stop-color="#4C1C00" offset="1"/>
				</linearGradient>
				<path d="m47.552 96.338l0.343 19.034s-0.789 1.141-0.93 1.344c-0.75 0.364-5.401 2.66-5.401 2.66l-0.152 2.498 8.977 8.783 7.181-3.554 0.259-0.481 1.128-1.813 2.498-15.761c0.728-0.36 3.221-1.593 5.363-2.653l0.092-2.155-12.339-11.308-7.019 3.406z" fill="url(#aigrd21)"/>
				<path d="m47.552 96.338l12.188 11.45 7.17-3.548-12.339-11.308-7.019 3.406z"/>
				<linearGradient id="aigrd22" y2="107.14" gradientUnits="userSpaceOnUse" x2="65.05" gradientTransform="matrix(.9993 .037 -.037 .9993 -1.43 1.8062)" y1="107.14" x1="52.447">
					<stop stop-color="#FFFFE1" offset="0"/>
					<stop stop-color="#FFB800" offset="1"/>
				</linearGradient>
				<path d="m46.922 116.77l0.973-1.402-0.343-19.034 12.188 11.45-2.591 16.348-0.939 1.51-9.288-8.871z" fill="url(#aigrd22)"/>
				<linearGradient id="aigrd23" y2="118.82" gradientUnits="userSpaceOnUse" x2="62.183" gradientTransform="matrix(.9993 .037 -.037 .9993 -1.43 1.8062)" y1="118.82" x1="47.275">
					<stop stop-color="#FFFFE1" offset="0"/>
					<stop stop-color="#FFB800" offset="1"/>
				</linearGradient>
				<path d="m41.524 119.38l9.189 8.991 5.497-2.721-9.305-8.882-5.38 2.611z" fill="url(#aigrd23)"/>
				<linearGradient id="aigrd24" y2="94.095" gradientUnits="userSpaceOnUse" x2="50.093" y1="94.095" x1="18.796">
					<stop stop-color="#FFAE00" offset="0"/>
					<stop stop-color="#4C1C00" offset="1"/>
				</linearGradient>
				<path d="m35.36 71.819l14.733 13.503-0.22 5.151s-5.348 2.646-5.553 2.747c-0.378 2.388-2.358 14.88-2.358 14.88s-1.297 2.086-1.384 2.225c-0.06 0.109-0.645 1.198-0.645 1.198l-9.796 4.847-11.34-11.095 0.326-5.436s5.169-2.546 6.213-3.06c-0.03-1.668-0.359-19.923-0.359-19.923l8.649-4.197 1.734-0.841zm-0.496 3.393l12.339 11.309-0.093 2.154c-2.142 1.061-4.635 2.294-5.363 2.654-0.271 1.709-2.498 15.76-2.498 15.76l-1.128 1.813-0.259 0.48-7.181 3.554-8.977-8.783 0.151-2.498s4.651-2.295 5.401-2.66c0.142-0.203 0.93-1.344 0.93-1.344l-0.342-19.033 7.018-3.406z" fill="url(#aigrd24)"/>
				<linearGradient id="aigrd25" y2="90.94" gradientUnits="userSpaceOnUse" x2="63.554" gradientTransform="matrix(.9993 .037 -.037 .9993 -1.43 1.8062)" y1="90.94" x1="32.826">
					<stop stop-color="#FFAE00" offset="0"/>
					<stop stop-color="#4C1C00" offset="1"/>
				</linearGradient>
				<path d="m27.846 78.618l0.342 19.033s-0.788 1.141-0.93 1.344c-0.75 0.365-5.401 2.66-5.401 2.66l-0.151 2.498 8.977 8.783 7.181-3.554 0.259-0.48 1.128-1.813s2.227-14.051 2.498-15.76c0.728-0.36 3.221-1.594 5.363-2.654l0.093-2.154-12.341-11.32-7.018 3.406z" fill="url(#aigrd25)"/>
				<path d="m27.846 78.618l12.187 11.449 7.17-3.547-12.339-11.308-7.018 3.406z"/>
				<linearGradient id="aigrd26" y2="90.161" gradientUnits="userSpaceOnUse" x2="44.701" gradientTransform="matrix(.9993 .037 -.037 .9993 -1.43 1.8062)" y1="90.161" x1="32.098">
					<stop stop-color="#FFFFE1" offset="0"/>
					<stop stop-color="#FFB800" offset="1"/>
				</linearGradient>
				<path d="m27.214 99.055l0.973-1.403-0.342-19.033 12.187 11.449-2.591 16.348-0.939 1.511-9.288-8.871z" fill="url(#aigrd26)"/>
				<linearGradient id="aigrd27" y2="101.84" gradientUnits="userSpaceOnUse" x2="41.834" gradientTransform="matrix(.9993 .037 -.037 .9993 -1.43 1.8062)" y1="101.84" x1="26.926">
					<stop stop-color="#FFFFE1" offset="0"/>
					<stop stop-color="#FFB800" offset="1"/>
				</linearGradient>
				<path d="m21.817 101.65l9.189 8.991 5.497-2.72-9.306-8.882-5.38 2.61z" fill="url(#aigrd27)"/>
				<linearGradient id="aigrd28" y2="76.534" gradientUnits="userSpaceOnUse" x2="31.506" y1="76.534" x1=".209">
					<stop stop-color="#FFAE00" offset="0"/>
					<stop stop-color="#4C1C00" offset="1"/>
				</linearGradient>
				<path d="m16.773 54.258l14.733 13.503-0.22 5.151s-5.348 2.646-5.553 2.748c-0.379 2.388-2.358 14.879-2.358 14.879s-1.297 2.086-1.384 2.225c-0.059 0.109-0.646 1.199-0.646 1.199l-9.795 4.847-11.341-11.094 0.326-5.436s5.169-2.546 6.214-3.06c-0.03-1.668-0.359-19.923-0.359-19.923l8.648-4.197 1.734-0.842zm-0.496 3.393l12.339 11.309-0.092 2.155c-2.142 1.06-4.635 2.294-5.363 2.653-0.271 1.709-2.498 15.761-2.498 15.761l-1.128 1.813-0.259 0.481-7.181 3.553-8.977-8.783 0.151-2.498s4.651-2.296 5.401-2.659c0.142-0.204 0.93-1.345 0.93-1.345l-0.341-19.034 7.018-3.406z" fill="url(#aigrd28)"/>
			</g>
			<linearGradient id="aigrd29" y2="74.08" gradientUnits="userSpaceOnUse" x2="44.329" gradientTransform="matrix(.9993 .037 -.037 .9993 -1.43 1.8062)" y1="74.08" x1="13.602">
				<stop stop-color="#FFAE00" offset="0"/>
				<stop stop-color="#4C1C00" offset="1"/>
			</linearGradient>
			<path d="m9.259 61.057l0.342 19.034s-0.789 1.141-0.93 1.345c-0.75 0.363-5.401 2.659-5.401 2.659l-0.151 2.498 8.977 8.783 7.181-3.553 0.259-0.481 1.128-1.813s2.226-14.052 2.498-15.761c0.728-0.359 3.222-1.593 5.363-2.653l0.092-2.155-12.34-11.309-7.018 3.406z" fill="url(#aigrd29)"/>
			<path d="m9.259 61.057l12.188 11.449 7.17-3.546-12.34-11.309-7.018 3.406z"/>
			<linearGradient id="aigrd30" y2="73.301" gradientUnits="userSpaceOnUse" x2="25.477" gradientTransform="matrix(.9993 .037 -.037 .9993 -1.43 1.8062)" y1="73.301" x1="12.874">
				<stop stop-color="#FFFFE1" offset="0"/>
				<stop stop-color="#FFB800" offset="1"/>
			</linearGradient>
			<path d="m8.628 81.495l0.973-1.404-0.342-19.034 12.188 11.449-2.591 16.349-0.94 1.511-9.288-8.871z" fill="url(#aigrd30)"/>
			<linearGradient id="aigrd31" y2="84.978" gradientUnits="userSpaceOnUse" x2="22.609" gradientTransform="matrix(.9993 .037 -.037 .9993 -1.43 1.8062)" y1="84.978" x1="7.7017">
				<stop stop-color="#FFFFE1" offset="0"/>
				<stop stop-color="#FFB800" offset="1"/>
			</linearGradient>
			<path d="m3.23 84.095l9.189 8.99 5.496-2.719-9.305-8.883-5.38 2.611z" fill="url(#aigrd31)"/>
		</g>
	</g>
</svg>
