<?xml version="1.0" encoding="UTF-8" standalone="no"?>
<svg
   xmlns:dc="http://purl.org/dc/elements/1.1/"
   xmlns:cc="http://creativecommons.org/ns#"
   xmlns:rdf="http://www.w3.org/1999/02/22-rdf-syntax-ns#"
   xmlns:svg="http://www.w3.org/2000/svg"
   xmlns="http://www.w3.org/2000/svg"
   xmlns:sodipodi="http://sodipodi.sourceforge.net/DTD/sodipodi-0.dtd"
   xmlns:inkscape="http://www.inkscape.org/namespaces/inkscape"
   viewBox="0 0 16.000002 16.000002"
   id="svg4198"
   version="1.1"
   inkscape:version="0.91 r13725"
   sodipodi:docname="emblem-warning.svg"
   width="16.000002"
   height="16.000002">
  <metadata
     id="metadata4208">
    <rdf:RDF>
      <cc:Work
         rdf:about="">
        <dc:format>image/svg+xml</dc:format>
        <dc:type
           rdf:resource="http://purl.org/dc/dcmitype/StillImage" />
        <dc:title></dc:title>
      </cc:Work>
    </rdf:RDF>
  </metadata>
  <sodipodi:namedview
     pagecolor="#ffffff"
     bordercolor="#666666"
     borderopacity="1"
     objecttolerance="10"
     gridtolerance="10"
     guidetolerance="10"
     inkscape:pageopacity="0"
     inkscape:pageshadow="2"
     inkscape:window-width="1440"
     inkscape:window-height="852"
     id="namedview4206"
     showgrid="false"
     fit-margin-top="4"
     fit-margin-bottom="4"
     fit-margin-left="4"
     fit-margin-right="4"
     inkscape:zoom="42.1875"
     inkscape:cx="7.4969478"
     inkscape:cy="7.7997398"
     inkscape:window-x="1280"
     inkscape:window-y="0"
     inkscape:window-maximized="1"
     inkscape:current-layer="svg4198" />
  <defs
     id="defs3051">
    <style
       type="text/css"
       id="current-color-scheme">
      .ColorScheme-NeutralText {
        color:#f67400;
      }
      </style>
  </defs>
  <g
     id="g4210"
     transform="matrix(1.9955554,0,0,1.9955554,-7.9822214,-7.9466643)">
    <path
       inkscape:connector-curvature="0"
       id="path4202"
       d="m 7.9999999,4.0000008 c -0.2035165,2.532e-4 -0.355322,0.096491 -0.4628906,0.3125 0,0 -3.4598629,6.8880962 -3.4570313,6.9160152 C 4.043417,11.305506 3.999987,11.403682 4,11.500001 c 0,0.276142 0.2238576,0.5 0.5,0.5 l 7,0 c 0.276142,0 0.5,-0.223858 0.5,-0.5 2.02e-4,-0.112662 -0.01812,-0.132246 -0.107422,-0.310547 L 8.455078,4.2910165 C 8.3460009,4.0977422 8.195549,3.9996695 7.9999999,4.0000008 Z"
       class="ColorScheme-NeutralText"
       style="color:#f67400;fill:currentColor;fill-opacity:1;stroke:none" />
    <path
       inkscape:connector-curvature="0"
       id="path4204"
       d="m 7.4999999,6.0000008 0,3 1,0 0,-3 -1,0 z m 0,4.0000002 0,1 1,0 0,-1 -1,0 z"
       style="fill:#ffffff;fill-opacity:1;stroke:none" />
  </g>
</svg>
