<?xml version="1.0" encoding="UTF-8" standalone="no"?>
<!-- Created with Inkscape (http://www.inkscape.org/) -->

<svg
   xmlns:dc="http://purl.org/dc/elements/1.1/"
   xmlns:cc="http://creativecommons.org/ns#"
   xmlns:rdf="http://www.w3.org/1999/02/22-rdf-syntax-ns#"
   xmlns:svg="http://www.w3.org/2000/svg"
   xmlns="http://www.w3.org/2000/svg"
   xmlns:sodipodi="http://sodipodi.sourceforge.net/DTD/sodipodi-0.dtd"
   xmlns:inkscape="http://www.inkscape.org/namespaces/inkscape"
   width="228.31628"
   height="222.14375"
   id="svg2"
   version="1.1"
   inkscape:version="0.91 r13725"
   sodipodi:docname="midiiconoutput.svg">
  <defs
     id="defs4">
    <inkscape:path-effect
       effect="spiro"
       id="path-effect5445"
       is_visible="true" />
    <inkscape:path-effect
       effect="spiro"
       id="path-effect5441"
       is_visible="true" />
    <inkscape:path-effect
       effect="spiro"
       id="path-effect4257"
       is_visible="true" />
  </defs>
  <sodipodi:namedview
     id="base"
     pagecolor="#ffffff"
     bordercolor="#666666"
     borderopacity="1.0"
     inkscape:pageopacity="0.0"
     inkscape:pageshadow="2"
     inkscape:zoom="1.2681453"
     inkscape:cx="113.25494"
     inkscape:cy="155.47375"
     inkscape:document-units="px"
     inkscape:current-layer="layer3"
     showgrid="false"
     fit-margin-top="20"
     fit-margin-left="20"
     fit-margin-right="20"
     fit-margin-bottom="20"
     inkscape:window-width="1440"
     inkscape:window-height="852"
     inkscape:window-x="1280"
     inkscape:window-y="0"
     inkscape:window-maximized="1" />
  <metadata
     id="metadata7">
    <rdf:RDF>
      <cc:Work
         rdf:about="">
        <dc:format>image/svg+xml</dc:format>
        <dc:type
           rdf:resource="http://purl.org/dc/dcmitype/StillImage" />
        <dc:title />
      </cc:Work>
    </rdf:RDF>
  </metadata>
  <g
     inkscape:label="Livello 1"
     inkscape:groupmode="layer"
     id="layer1"
     transform="translate(-126.93561,-128.69375)">
    <path
       style="fill:none;stroke:#000000;stroke-width:8.80000019;stroke-linecap:butt;stroke-linejoin:miter;stroke-miterlimit:4;stroke-dasharray:none;stroke-opacity:1"
       d="m 269.19031,317.02428 c 2.03427,2.84582 3.64704,6.01393 4.74719,9.41322 11.1582,-4.37788 21.60779,-11.07654 30.625,-20.09375 35.05252,-35.05252 35.05252,-91.88498 0,-126.9375 -17.52626,-17.52626 -40.49778,-26.3125 -63.46875,-26.3125 -22.97097,0 -45.94249,8.78624 -63.46875,26.3125 -35.05252,35.05252 -35.05252,91.88498 0,126.9375 9.00705,9.00705 19.48095,15.68433 30.625,20.0625 1.11951,-3.44988 2.76764,-6.66089 4.84881,-9.53788"
       id="path3763"
       inkscape:connector-curvature="0"
       sodipodi:nodetypes="ccssssscc" />
    <path
       sodipodi:type="arc"
       style="fill:none;stroke:#000000;stroke-width:9.52777767;stroke-linecap:butt;stroke-linejoin:miter;stroke-miterlimit:4;stroke-opacity:1;stroke-dasharray:none"
       id="path3807"
       sodipodi:cx="214.57736"
       sodipodi:cy="238.33061"
       sodipodi:rx="18.543722"
       sodipodi:ry="18.543722"
       d="m 233.12108,238.33061 a 18.543722,18.543722 0 0 1 -18.54372,18.54372 18.543722,18.543722 0 0 1 -18.54372,-18.54372 18.543722,18.543722 0 0 1 18.54372,-18.54372 18.543722,18.543722 0 0 1 18.54372,18.54372 z"
       transform="matrix(0.73469387,0,0,0.73469387,26.653223,67.76365)" />
    <path
       sodipodi:type="arc"
       style="fill:none;stroke:#000000;stroke-width:9.52777767;stroke-linecap:butt;stroke-linejoin:miter;stroke-miterlimit:4;stroke-opacity:1;stroke-dasharray:none"
       id="path3807-5"
       sodipodi:cx="214.57736"
       sodipodi:cy="238.33061"
       sodipodi:rx="18.543722"
       sodipodi:ry="18.543722"
       d="m 233.12108,238.33061 a 18.543722,18.543722 0 0 1 -18.54372,18.54372 18.543722,18.543722 0 0 1 -18.54372,-18.54372 18.543722,18.543722 0 0 1 18.54372,-18.54372 18.543722,18.543722 0 0 1 18.54372,18.54372 z"
       transform="matrix(-0.73469387,0,0,-0.73469387,455.56169,417.96373)" />
    <path
       sodipodi:type="arc"
       style="fill:none;stroke:#000000;stroke-width:9.52777767;stroke-linecap:butt;stroke-linejoin:miter;stroke-miterlimit:4;stroke-opacity:1;stroke-dasharray:none"
       id="path3807-3"
       sodipodi:cx="214.57736"
       sodipodi:cy="238.33061"
       sodipodi:rx="18.543722"
       sodipodi:ry="18.543722"
       d="m 233.12108,238.33061 a 18.543722,18.543722 0 0 1 -18.54372,18.54372 18.543722,18.543722 0 0 1 -18.54372,-18.54372 18.543722,18.543722 0 0 1 18.54372,-18.54372 18.543722,18.543722 0 0 1 18.54372,18.54372 z"
       transform="matrix(0,0.73469387,-0.73469387,0,416.20749,28.40946)" />
    <path
       sodipodi:type="arc"
       style="fill:none;stroke:#000000;stroke-width:9.52777767;stroke-linecap:butt;stroke-linejoin:miter;stroke-miterlimit:4;stroke-opacity:1;stroke-dasharray:none"
       id="path3807-7"
       sodipodi:cx="214.57736"
       sodipodi:cy="238.33061"
       sodipodi:rx="18.543722"
       sodipodi:ry="18.543722"
       d="m 233.12108,238.33061 a 18.543722,18.543722 0 0 1 -18.54372,18.54372 18.543722,18.543722 0 0 1 -18.54372,-18.54372 18.543722,18.543722 0 0 1 18.54372,-18.54372 18.543722,18.543722 0 0 1 18.54372,18.54372 z"
       transform="matrix(0.51950702,0.51950702,-0.51950702,0.51950702,213.27984,-32.592778)" />
    <path
       sodipodi:type="arc"
       style="fill:none;stroke:#000000;stroke-width:9.52777767;stroke-linecap:butt;stroke-linejoin:miter;stroke-miterlimit:4;stroke-opacity:1;stroke-dasharray:none"
       id="path3807-4"
       sodipodi:cx="214.57736"
       sodipodi:cy="238.33061"
       sodipodi:rx="18.543722"
       sodipodi:ry="18.543722"
       d="m 233.12108,238.33061 a 18.543722,18.543722 0 0 1 -18.54372,18.54372 18.543722,18.543722 0 0 1 -18.54372,-18.54372 18.543722,18.543722 0 0 1 18.54372,-18.54372 18.543722,18.543722 0 0 1 18.54372,18.54372 z"
       transform="matrix(-0.51950702,0.51950702,-0.51950702,-0.51950702,516.56392,215.03607)" />
  </g>
  <g
     inkscape:groupmode="layer"
     id="layer3"
     inkscape:label="Freccia">
    <path
       style="fill:#000000;fill-opacity:1;fill-rule:evenodd;stroke:none;stroke-width:8;stroke-linecap:butt;stroke-linejoin:miter;stroke-miterlimit:4;stroke-dasharray:none;stroke-opacity:1"
       d="m 54.930006,144.27458 58.809564,59.53485 59.64671,-59.53485 -118.456274,0 z"
       id="path4255"
       inkscape:path-effect="#path-effect4257"
       inkscape:original-d="m 54.930006,144.27458 58.809564,59.53485 59.64671,-59.53485 z"
       inkscape:connector-curvature="0"
       sodipodi:nodetypes="ccc" />
  </g>
</svg>
