<?xml version="1.0" encoding="UTF-8" standalone="no"?>
<!-- Created with Inkscape (http://www.inkscape.org/) -->

<svg
   xmlns:dc="http://purl.org/dc/elements/1.1/"
   xmlns:cc="http://creativecommons.org/ns#"
   xmlns:rdf="http://www.w3.org/1999/02/22-rdf-syntax-ns#"
   xmlns:svg="http://www.w3.org/2000/svg"
   xmlns="http://www.w3.org/2000/svg"
   xmlns:sodipodi="http://sodipodi.sourceforge.net/DTD/sodipodi-0.dtd"
   xmlns:inkscape="http://www.inkscape.org/namespaces/inkscape"
   width="228.31628"
   height="222.14375"
   id="svg2"
   version="1.1"
   inkscape:version="0.48.5 r10040"
   sodipodi:docname="midiicon.svg">
  <defs
     id="defs4" />
  <sodipodi:namedview
     id="base"
     pagecolor="#ffffff"
     bordercolor="#666666"
     borderopacity="1.0"
     inkscape:pageopacity="0.0"
     inkscape:pageshadow="2"
     inkscape:zoom="0.93423077"
     inkscape:cx="180.07673"
     inkscape:cy="78.212214"
     inkscape:document-units="px"
     inkscape:current-layer="layer1"
     showgrid="false"
     fit-margin-top="20"
     fit-margin-left="20"
     fit-margin-right="20"
     fit-margin-bottom="20"
     inkscape:window-width="1440"
     inkscape:window-height="852"
     inkscape:window-x="1280"
     inkscape:window-y="0"
     inkscape:window-maximized="1" />
  <metadata
     id="metadata7">
    <rdf:RDF>
      <cc:Work
         rdf:about="">
        <dc:format>image/svg+xml</dc:format>
        <dc:type
           rdf:resource="http://purl.org/dc/dcmitype/StillImage" />
        <dc:title></dc:title>
      </cc:Work>
    </rdf:RDF>
  </metadata>
  <g
     inkscape:label="Livello 1"
     inkscape:groupmode="layer"
     id="layer1"
     transform="translate(-126.93561,-128.69375)">
    <path
       style="fill:none;stroke:#000000;stroke-width:8.80000019;stroke-linecap:butt;stroke-linejoin:miter;stroke-miterlimit:4;stroke-opacity:1;stroke-dasharray:none"
       d="m 241.09375,153.09375 c -22.97097,0 -45.94249,8.78624 -63.46875,26.3125 -35.05252,35.05252 -35.05252,91.88498 0,126.9375 9.00705,9.00705 19.48095,15.68433 30.625,20.0625 4.49302,-13.84563 17.50055,-23.84375 32.84375,-23.84375 15.35263,0 28.35844,10.01615 32.84375,23.875 11.1582,-4.37788 21.60779,-11.07654 30.625,-20.09375 35.05252,-35.05252 35.05252,-91.88498 0,-126.9375 -17.52626,-17.52626 -40.49778,-26.3125 -63.46875,-26.3125 z"
       id="path3763"
       inkscape:connector-curvature="0" />
    <path
       sodipodi:type="arc"
       style="fill:none;stroke:#000000;stroke-width:9.52777767;stroke-linecap:butt;stroke-linejoin:miter;stroke-miterlimit:4;stroke-opacity:1;stroke-dasharray:none"
       id="path3807"
       sodipodi:cx="214.57736"
       sodipodi:cy="238.33061"
       sodipodi:rx="18.543722"
       sodipodi:ry="18.543722"
       d="m 233.12108,238.33061 c 0,10.24142 -8.3023,18.54372 -18.54372,18.54372 -10.24141,0 -18.54372,-8.3023 -18.54372,-18.54372 0,-10.24141 8.30231,-18.54372 18.54372,-18.54372 10.24142,0 18.54372,8.30231 18.54372,18.54372 z"
       transform="matrix(0.73469387,0,0,0.73469387,26.653223,67.76365)" />
    <path
       sodipodi:type="arc"
       style="fill:none;stroke:#000000;stroke-width:9.52777767;stroke-linecap:butt;stroke-linejoin:miter;stroke-miterlimit:4;stroke-opacity:1;stroke-dasharray:none"
       id="path3807-5"
       sodipodi:cx="214.57736"
       sodipodi:cy="238.33061"
       sodipodi:rx="18.543722"
       sodipodi:ry="18.543722"
       d="m 233.12108,238.33061 c 0,10.24142 -8.3023,18.54372 -18.54372,18.54372 -10.24141,0 -18.54372,-8.3023 -18.54372,-18.54372 0,-10.24141 8.30231,-18.54372 18.54372,-18.54372 10.24142,0 18.54372,8.30231 18.54372,18.54372 z"
       transform="matrix(-0.73469387,0,0,-0.73469387,455.56169,417.96373)" />
    <path
       sodipodi:type="arc"
       style="fill:none;stroke:#000000;stroke-width:9.52777767;stroke-linecap:butt;stroke-linejoin:miter;stroke-miterlimit:4;stroke-opacity:1;stroke-dasharray:none"
       id="path3807-3"
       sodipodi:cx="214.57736"
       sodipodi:cy="238.33061"
       sodipodi:rx="18.543722"
       sodipodi:ry="18.543722"
       d="m 233.12108,238.33061 c 0,10.24142 -8.3023,18.54372 -18.54372,18.54372 -10.24141,0 -18.54372,-8.3023 -18.54372,-18.54372 0,-10.24141 8.30231,-18.54372 18.54372,-18.54372 10.24142,0 18.54372,8.30231 18.54372,18.54372 z"
       transform="matrix(0,0.73469387,-0.73469387,0,416.20749,28.40946)" />
    <path
       sodipodi:type="arc"
       style="fill:none;stroke:#000000;stroke-width:9.52777767;stroke-linecap:butt;stroke-linejoin:miter;stroke-miterlimit:4;stroke-opacity:1;stroke-dasharray:none"
       id="path3807-7"
       sodipodi:cx="214.57736"
       sodipodi:cy="238.33061"
       sodipodi:rx="18.543722"
       sodipodi:ry="18.543722"
       d="m 233.12108,238.33061 c 0,10.24142 -8.3023,18.54372 -18.54372,18.54372 -10.24141,0 -18.54372,-8.3023 -18.54372,-18.54372 0,-10.24141 8.30231,-18.54372 18.54372,-18.54372 10.24142,0 18.54372,8.30231 18.54372,18.54372 z"
       transform="matrix(0.51950702,0.51950702,-0.51950702,0.51950702,213.27984,-32.592778)" />
    <path
       sodipodi:type="arc"
       style="fill:none;stroke:#000000;stroke-width:9.52777767;stroke-linecap:butt;stroke-linejoin:miter;stroke-miterlimit:4;stroke-opacity:1;stroke-dasharray:none"
       id="path3807-4"
       sodipodi:cx="214.57736"
       sodipodi:cy="238.33061"
       sodipodi:rx="18.543722"
       sodipodi:ry="18.543722"
       d="m 233.12108,238.33061 c 0,10.24142 -8.3023,18.54372 -18.54372,18.54372 -10.24141,0 -18.54372,-8.3023 -18.54372,-18.54372 0,-10.24141 8.30231,-18.54372 18.54372,-18.54372 10.24142,0 18.54372,8.30231 18.54372,18.54372 z"
       transform="matrix(-0.51950702,0.51950702,-0.51950702,-0.51950702,516.56392,215.03607)" />
  </g>
</svg>
