<?xml version="1.0" encoding="UTF-8" standalone="no"?>
<svg
   xmlns:dc="http://purl.org/dc/elements/1.1/"
   xmlns:cc="http://creativecommons.org/ns#"
   xmlns:rdf="http://www.w3.org/1999/02/22-rdf-syntax-ns#"
   xmlns:svg="http://www.w3.org/2000/svg"
   xmlns="http://www.w3.org/2000/svg"
   xmlns:sodipodi="http://sodipodi.sourceforge.net/DTD/sodipodi-0.dtd"
   xmlns:inkscape="http://www.inkscape.org/namespaces/inkscape"
   version="1.1"
   viewBox="0 -200 1000 1000"
   id="svg7022"
   inkscape:version="0.91 r13725"
   sodipodi:docname="note-1-16t.svg">
  <metadata
     id="metadata7032">
    <rdf:RDF>
      <cc:Work
         rdf:about="">
        <dc:format>image/svg+xml</dc:format>
        <dc:type
           rdf:resource="http://purl.org/dc/dcmitype/StillImage" />
        <dc:title></dc:title>
      </cc:Work>
    </rdf:RDF>
  </metadata>
  <defs
     id="defs7030" />
  <sodipodi:namedview
     pagecolor="#ffffff"
     bordercolor="#666666"
     borderopacity="1"
     objecttolerance="10"
     gridtolerance="10"
     guidetolerance="10"
     inkscape:pageopacity="0"
     inkscape:pageshadow="2"
     inkscape:window-width="1440"
     inkscape:window-height="852"
     id="namedview7028"
     showgrid="false"
     inkscape:zoom="0.236"
     inkscape:cx="-430.08475"
     inkscape:cy="500"
     inkscape:window-x="1280"
     inkscape:window-y="0"
     inkscape:window-maximized="1"
     inkscape:current-layer="svg7022" />
  <g
     transform="matrix(0.87956989,0,0,-0.87956989,295.5,591.2043)"
     id="g7024">
    <path
       d="m 442,362 c 14,-30 23,-63 23,-96 l 0,-18 c 0,-38 -3,-84 -6,-88 -5,-10 -10,-14 -16,-14 -2,0 -4,1 -6,2 -6,2 -11,8 -11,19 l 0,7 c 4,24 7,48 7,72 0,41 -7,80 -26,119 -48,97 -97,111 -141,114 l 0,-339 C 266,64 167,-10 87,-10 38,-10 0,18 0,65 c 0,77 79,150 178,150 26,0 48,-7 64,-21 l 0,286 0,0 0,318 13,0 c 0,0 15,-1 16,-10 14,-85 59,-98 102,-144 57,-62 78,-85 86,-139 2,-10 3,-19 3,-29 0,-49 -18,-97 -20,-102 -1,-2 -1,-4 -1,-5 0,-3 1,-5 1,-7 z m -12,90 c 1,6 1,10 1,16 0,26 -7,50 -21,71 -27,39 -70,84 -119,84 l -6,0 c -7,0 -11,-5 -11,-8 l 0,-2 c 17,-66 54,-85 92,-128 16,-19 30,-35 43,-55 1,-3 3,-4 5,-4 4,0 10,3 11,5 4,7 4,15 5,21 z"
       id="path7026"
       inkscape:connector-curvature="0"
       style="fill:currentColor" />
  </g>
  <g
     style="display:inline"
     transform="matrix(0.51622419,0,0,-0.51622419,673.67257,776.38643)"
     id="g4256">
    <path
       style="fill:currentColor"
       inkscape:connector-curvature="0"
       d="M 403,671 Q 348,671 300,659 252,647 216.5,625 181,603 160.5,572 140,541 140,504 140,474 159.5,456.5 179,439 210,439 q 42,0 71,26 29,26 29,68 0,10 -6,24.5 -6,14.5 -13,27 -7,12.5 -12,20.5 -5,8 -3,6 25,24 78,24 108,0 108,-100 0,-58 -13,-91 -13,-33 -33,-49 -20,-16 -44.5,-20 -24.5,-4 -48.5,-4 l -25,0 q -24,0 -40.5,-5 Q 241,361 241,339 l 0,-9 q 0,-14 31,-18 l 42,-3 q 43,-3 64,-29.5 Q 399,253 399,205 399,26 251,26 q -57,0 -87,33 62,65 62,102 0,27 -19,42.5 -19,15.5 -47,15.5 -23,0 -42.5,-8.5 Q 98,202 83,187 68,172 59.5,152 51,132 51,110 51,81 66.5,59.5 82,38 110,23 138,8 176.5,0.5 215,-7 260,-7 322,-7 376,7 430,21 469.5,49.5 509,78 532,120 q 23,42 23,99 0,45 -25.5,75.5 Q 504,325 459,335 l -4,9 q 64,22 102,70.5 38,48.5 38,114.5 0,28 -15,54 -15,26 -41.5,45.5 Q 512,648 477,659.5 442,671 403,671 Z"
       id="path4258" />
  </g>
</svg>
