<?xml version="1.0" encoding="UTF-8" standalone="no"?>
<svg
   xmlns:dc="http://purl.org/dc/elements/1.1/"
   xmlns:cc="http://creativecommons.org/ns#"
   xmlns:rdf="http://www.w3.org/1999/02/22-rdf-syntax-ns#"
   xmlns:svg="http://www.w3.org/2000/svg"
   xmlns="http://www.w3.org/2000/svg"
   xmlns:sodipodi="http://sodipodi.sourceforge.net/DTD/sodipodi-0.dtd"
   xmlns:inkscape="http://www.inkscape.org/namespaces/inkscape"
   version="1.1"
   viewBox="0 -200 1000 1000"
   id="svg6451"
   inkscape:version="0.91 r13725"
   sodipodi:docname="4-4.svg">
  <metadata
     id="metadata6461">
    <rdf:RDF>
      <cc:Work
         rdf:about="">
        <dc:format>image/svg+xml</dc:format>
        <dc:type
           rdf:resource="http://purl.org/dc/dcmitype/StillImage" />
        <dc:title></dc:title>
      </cc:Work>
    </rdf:RDF>
  </metadata>
  <defs
     id="defs6459" />
  <sodipodi:namedview
     pagecolor="#ffffff"
     bordercolor="#666666"
     borderopacity="1"
     objecttolerance="10"
     gridtolerance="10"
     guidetolerance="10"
     inkscape:pageopacity="0"
     inkscape:pageshadow="2"
     inkscape:window-width="1440"
     inkscape:window-height="852"
     id="namedview6457"
     showgrid="false"
     inkscape:zoom="0.236"
     inkscape:cx="324.15254"
     inkscape:cy="500"
     inkscape:window-x="1280"
     inkscape:window-y="0"
     inkscape:window-maximized="1"
     inkscape:current-layer="svg6451" />
  <g
     transform="matrix(0.8773842,0,0,-0.8773842,339,600)"
     id="g6453">
    <path
       d="M 188,218 C 269,218 367,172 367,110 367,50 322,0 179,0 50,0 0,52 0,110 0,170 72,218 188,218 Z M 97,164 c -3,-7 -3,-14 -3,-22 0,-27 13,-56 30,-76 6,-8 12,-14 18,-20 12,-10 27,-18 41,-23 8,-2 15,-3 23,-3 9,0 18,1 27,3 21,6 34,21 38,43 1,4 2,10 2,16 0,52 -48,116 -107,116 -28,0 -60,-4 -69,-34 z"
       id="path6455"
       inkscape:connector-curvature="0"
       style="fill:currentColor" />
  </g>
</svg>
