<?xml version="1.0" encoding="UTF-8" standalone="no"?>
<svg
   xmlns:dc="http://purl.org/dc/elements/1.1/"
   xmlns:cc="http://creativecommons.org/ns#"
   xmlns:rdf="http://www.w3.org/1999/02/22-rdf-syntax-ns#"
   xmlns:svg="http://www.w3.org/2000/svg"
   xmlns="http://www.w3.org/2000/svg"
   xmlns:sodipodi="http://sodipodi.sourceforge.net/DTD/sodipodi-0.dtd"
   xmlns:inkscape="http://www.inkscape.org/namespaces/inkscape"
   version="1.1"
   viewBox="0 -200 1000 1000"
   id="svg4136"
   inkscape:version="0.91 r13725"
   sodipodi:docname="note-3-16.svg">
  <metadata
     id="metadata4146">
    <rdf:RDF>
      <cc:Work
         rdf:about="">
        <dc:format>image/svg+xml</dc:format>
        <dc:type
           rdf:resource="http://purl.org/dc/dcmitype/StillImage" />
        <dc:title></dc:title>
      </cc:Work>
    </rdf:RDF>
  </metadata>
  <defs
     id="defs4144" />
  <sodipodi:namedview
     pagecolor="#ffffff"
     bordercolor="#666666"
     borderopacity="1"
     objecttolerance="10"
     gridtolerance="10"
     guidetolerance="10"
     inkscape:pageopacity="0"
     inkscape:pageshadow="2"
     inkscape:window-width="1280"
     inkscape:window-height="999"
     id="namedview4142"
     showgrid="false"
     inkscape:zoom="0.47729708"
     inkscape:cx="419.66453"
     inkscape:cy="376.45487"
     inkscape:window-x="0"
     inkscape:window-y="0"
     inkscape:window-maximized="1"
     inkscape:current-layer="svg4136" />
  <g
     transform="matrix(0.88300221,0,0,-0.88300221,300,591.16998)"
     id="g4138">
    <path
       d="m 361,575 c 50,-80 92,-174 92,-274 0,-63 -21,-139 -21,-139 -4,-13 -14,-16 -21,-16 l -1,1 c -5,3 -13,11 -13,23 0,4 1,8 2,12 14,36 19,74 19,110 0,47 -7,93 -19,120 -25,58 -84,146 -133,177 l 0,-449 C 266,64 167,-10 87,-10 38,-10 0,18 0,65 c 0,77 79,150 178,150 26,0 48,-7 64,-21 l 0,404 0,0 0,188 0,4 0,1 0,0 c 0,6 4,7 8,7 15,0 21,-4 24,-17 12,-77 46,-143 87,-206 z"
       id="path4140"
       inkscape:connector-curvature="0"
       style="fill:currentColor" />
  </g>
  <circle
     style="fill:#000000;fill-opacity:0.98039216;fill-rule:evenodd;stroke:none;stroke-width:1px;stroke-linecap:butt;stroke-linejoin:miter;stroke-opacity:1"
     id="path4738"
     cx="770.25421"
     cy="489.74576"
     r="40.254238" />
</svg>
