<?xml version="1.0" encoding="UTF-8" standalone="no"?>
<svg
   xmlns:dc="http://purl.org/dc/elements/1.1/"
   xmlns:cc="http://creativecommons.org/ns#"
   xmlns:rdf="http://www.w3.org/1999/02/22-rdf-syntax-ns#"
   xmlns:svg="http://www.w3.org/2000/svg"
   xmlns="http://www.w3.org/2000/svg"
   xmlns:sodipodi="http://sodipodi.sourceforge.net/DTD/sodipodi-0.dtd"
   xmlns:inkscape="http://www.inkscape.org/namespaces/inkscape"
   version="1.1"
   viewBox="0 -200 1000 1000"
   id="svg5880"
   inkscape:version="0.91 r13725"
   sodipodi:docname="note-3-4.svg">
  <metadata
     id="metadata5890">
    <rdf:RDF>
      <cc:Work
         rdf:about="">
        <dc:format>image/svg+xml</dc:format>
        <dc:type
           rdf:resource="http://purl.org/dc/dcmitype/StillImage" />
        <dc:title></dc:title>
      </cc:Work>
    </rdf:RDF>
  </metadata>
  <defs
     id="defs5888" />
  <sodipodi:namedview
     pagecolor="#ffffff"
     bordercolor="#666666"
     borderopacity="1"
     objecttolerance="10"
     gridtolerance="10"
     guidetolerance="10"
     inkscape:pageopacity="0"
     inkscape:pageshadow="2"
     inkscape:window-width="1440"
     inkscape:window-height="852"
     id="namedview5886"
     showgrid="false"
     inkscape:zoom="0.236"
     inkscape:cx="-430.08475"
     inkscape:cy="500"
     inkscape:window-x="1280"
     inkscape:window-y="0"
     inkscape:window-maximized="1"
     inkscape:current-layer="svg5880" />
  <g
     transform="matrix(0.87912088,0,0,-0.87912088,380,585.93407)"
     id="g5882">
    <path
       d="M 90,-16 C 39,-16 0,12 0,61 c 0,48 43,155 182,155 28,0 51,-8 67,-22 l 0,606 24,0 0,-662 C 273,107 242,-16 90,-16 Z m 21,158 C 47,105 27,79 27,59 27,53 30,46 33,41 39,30 50,20 70,20 c 20,0 48,10 90,38 65,42 84,64 84,83 0,6 -2,12 -6,17 -6,12 -16,20 -33,20 -19,0 -48,-10 -94,-36 z"
       id="path5884"
       inkscape:connector-curvature="0"
       style="fill:currentColor" />
  </g>
  <circle
     style="fill:#000000;fill-opacity:0.98039216;fill-rule:evenodd;stroke:none;stroke-width:1px;stroke-linecap:butt;stroke-linejoin:miter;stroke-opacity:1"
     id="path4738"
     cx="770.25421"
     cy="489.74576"
     r="40.254238" />
</svg>
