<?xml version="1.0" encoding="UTF-8" standalone="no"?>
<svg
   xmlns:dc="http://purl.org/dc/elements/1.1/"
   xmlns:cc="http://creativecommons.org/ns#"
   xmlns:rdf="http://www.w3.org/1999/02/22-rdf-syntax-ns#"
   xmlns:svg="http://www.w3.org/2000/svg"
   xmlns="http://www.w3.org/2000/svg"
   xmlns:sodipodi="http://sodipodi.sourceforge.net/DTD/sodipodi-0.dtd"
   xmlns:inkscape="http://www.inkscape.org/namespaces/inkscape"
   version="1.1"
   viewBox="0 -200 1000 1000"
   id="svg5309"
   inkscape:version="0.91 r13725"
   sodipodi:docname="note-1-4t.svg">
  <metadata
     id="metadata5319">
    <rdf:RDF>
      <cc:Work
         rdf:about="">
        <dc:format>image/svg+xml</dc:format>
        <dc:type
           rdf:resource="http://purl.org/dc/dcmitype/StillImage" />
        <dc:title />
      </cc:Work>
    </rdf:RDF>
  </metadata>
  <defs
     id="defs5317" />
  <sodipodi:namedview
     pagecolor="#ffffff"
     bordercolor="#666666"
     borderopacity="1"
     objecttolerance="10"
     gridtolerance="10"
     guidetolerance="10"
     inkscape:pageopacity="0"
     inkscape:pageshadow="2"
     inkscape:window-width="1280"
     inkscape:window-height="999"
     id="namedview5315"
     showgrid="false"
     inkscape:zoom="0.236"
     inkscape:cx="324.15254"
     inkscape:cy="500"
     inkscape:window-x="0"
     inkscape:window-y="0"
     inkscape:window-maximized="1"
     inkscape:current-layer="layer1" />
  <g
     transform="matrix(0.87969925,0,0,-0.87969925,383,588.56391)"
     id="g5311">
    <path
       d="m 242,192 0,608 24,0 0,-662 C 266,62 167,-13 87,-13 38,-13 0,15 0,62 c 0,78 79,151 178,151 26,0 48,-7 64,-21 z"
       id="path5313"
       inkscape:connector-curvature="0"
       style="fill:currentColor" />
  </g>
  <g
     inkscape:groupmode="layer"
     id="layer1"
     inkscape:label="triplet"
     style="display:inline">
    <g
       transform="matrix(0.51622419,0,0,-0.51622419,673.67257,776.38643)"
       id="g4256">
      <path
         style="fill:currentColor"
         inkscape:connector-curvature="0"
         d="M 403,671 Q 348,671 300,659 252,647 216.5,625 181,603 160.5,572 140,541 140,504 140,474 159.5,456.5 179,439 210,439 q 42,0 71,26 29,26 29,68 0,10 -6,24.5 -6,14.5 -13,27 -7,12.5 -12,20.5 -5,8 -3,6 25,24 78,24 108,0 108,-100 0,-58 -13,-91 -13,-33 -33,-49 -20,-16 -44.5,-20 -24.5,-4 -48.5,-4 l -25,0 q -24,0 -40.5,-5 Q 241,361 241,339 l 0,-9 q 0,-14 31,-18 l 42,-3 q 43,-3 64,-29.5 Q 399,253 399,205 399,26 251,26 q -57,0 -87,33 62,65 62,102 0,27 -19,42.5 -19,15.5 -47,15.5 -23,0 -42.5,-8.5 Q 98,202 83,187 68,172 59.5,152 51,132 51,110 51,81 66.5,59.5 82,38 110,23 138,8 176.5,0.5 215,-7 260,-7 322,-7 376,7 430,21 469.5,49.5 509,78 532,120 q 23,42 23,99 0,45 -25.5,75.5 Q 504,325 459,335 l -4,9 q 64,22 102,70.5 38,48.5 38,114.5 0,28 -15,54 -15,26 -41.5,45.5 Q 512,648 477,659.5 442,671 403,671 Z"
         id="path4258" />
    </g>
  </g>
</svg>
