<?xml version="1.0" encoding="UTF-8" standalone="no"?>
<svg
   xmlns:dc="http://purl.org/dc/elements/1.1/"
   xmlns:cc="http://creativecommons.org/ns#"
   xmlns:rdf="http://www.w3.org/1999/02/22-rdf-syntax-ns#"
   xmlns:svg="http://www.w3.org/2000/svg"
   xmlns="http://www.w3.org/2000/svg"
   xmlns:sodipodi="http://sodipodi.sourceforge.net/DTD/sodipodi-0.dtd"
   xmlns:inkscape="http://www.inkscape.org/namespaces/inkscape"
   version="1.1"
   viewBox="0 -200 1000 1000"
   id="svg7022"
   inkscape:version="0.91 r13725"
   sodipodi:docname="1-16.svg">
  <metadata
     id="metadata7032">
    <rdf:RDF>
      <cc:Work
         rdf:about="">
        <dc:format>image/svg+xml</dc:format>
        <dc:type
           rdf:resource="http://purl.org/dc/dcmitype/StillImage" />
        <dc:title></dc:title>
      </cc:Work>
    </rdf:RDF>
  </metadata>
  <defs
     id="defs7030" />
  <sodipodi:namedview
     pagecolor="#ffffff"
     bordercolor="#666666"
     borderopacity="1"
     objecttolerance="10"
     gridtolerance="10"
     guidetolerance="10"
     inkscape:pageopacity="0"
     inkscape:pageshadow="2"
     inkscape:window-width="1440"
     inkscape:window-height="852"
     id="namedview7028"
     showgrid="false"
     inkscape:zoom="0.236"
     inkscape:cx="324.15254"
     inkscape:cy="500"
     inkscape:window-x="1280"
     inkscape:window-y="0"
     inkscape:window-maximized="1"
     inkscape:current-layer="svg7022" />
  <g
     transform="matrix(0.87956989,0,0,-0.87956989,295.5,591.2043)"
     id="g7024">
    <path
       d="m 442,362 c 14,-30 23,-63 23,-96 l 0,-18 c 0,-38 -3,-84 -6,-88 -5,-10 -10,-14 -16,-14 -2,0 -4,1 -6,2 -6,2 -11,8 -11,19 l 0,7 c 4,24 7,48 7,72 0,41 -7,80 -26,119 -48,97 -97,111 -141,114 l 0,-339 C 266,64 167,-10 87,-10 38,-10 0,18 0,65 c 0,77 79,150 178,150 26,0 48,-7 64,-21 l 0,286 0,0 0,318 13,0 c 0,0 15,-1 16,-10 14,-85 59,-98 102,-144 57,-62 78,-85 86,-139 2,-10 3,-19 3,-29 0,-49 -18,-97 -20,-102 -1,-2 -1,-4 -1,-5 0,-3 1,-5 1,-7 z m -12,90 c 1,6 1,10 1,16 0,26 -7,50 -21,71 -27,39 -70,84 -119,84 l -6,0 c -7,0 -11,-5 -11,-8 l 0,-2 c 17,-66 54,-85 92,-128 16,-19 30,-35 43,-55 1,-3 3,-4 5,-4 4,0 10,3 11,5 4,7 4,15 5,21 z"
       id="path7026"
       inkscape:connector-curvature="0"
       style="fill:currentColor" />
  </g>
</svg>
