<?xml version="1.0" standalone="no"?>
<!DOCTYPE svg PUBLIC "-//W3C//DTD SVG 1.1//EN" "http://www.w3.org/Graphics/SVG/1.1/DTD/svg11.dtd" >
<svg xmlns="http://www.w3.org/2000/svg" xmlns:xlink="http://www.w3.org/1999/xlink" version="1.1" viewBox="0 -200 1000 1000">
  <g transform="matrix(1 0 0 -1 0 800)">
   <path fill="currentColor"
d="M90 -16c-51 0 -90 28 -90 77c0 48 43 155 182 155c28 0 51 -8 67 -22v606h24v-662c0 -31 -31 -154 -183 -154zM111 142c-64 -37 -84 -63 -84 -83c0 -6 3 -13 6 -18c6 -11 17 -21 37 -21s48 10 90 38c65 42 84 64 84 83c0 6 -2 12 -6 17c-6 12 -16 20 -33 20
c-19 0 -48 -10 -94 -36z" />
  </g>

</svg>
