<?xml version="1.0" standalone="no"?>
<!DOCTYPE svg PUBLIC "-//W3C//DTD SVG 1.1//EN" "http://www.w3.org/Graphics/SVG/1.1/DTD/svg11.dtd" >
<svg xmlns="http://www.w3.org/2000/svg" xmlns:xlink="http://www.w3.org/1999/xlink" version="1.1" viewBox="0 -200 1000 1000">
  <g transform="matrix(1 0 0 -1 0 800)">
   <path fill="currentColor"
d="M403 671q-55 0 -103 -12t-83.5 -34t-56 -53t-20.5 -68q0 -30 19.5 -47.5t50.5 -17.5q42 0 71 26t29 68q0 10 -6 24.5t-13 27t-12 20.5t-3 6q25 24 78 24q108 0 108 -100q0 -58 -13 -91t-33 -49t-44.5 -20t-48.5 -4h-25q-24 0 -40.5 -5t-16.5 -27v-9q0 -14 31 -18l42 -3
q43 -3 64 -29.5t21 -74.5q0 -179 -148 -179q-57 0 -87 33q62 65 62 102q0 27 -19 42.5t-47 15.5q-23 0 -42.5 -8.5t-34.5 -23.5t-23.5 -35t-8.5 -42q0 -29 15.5 -50.5t43.5 -36.5t66.5 -22.5t83.5 -7.5q62 0 116 14t93.5 42.5t62.5 70.5t23 99q0 45 -25.5 75.5t-70.5 40.5
l-4 9q64 22 102 70.5t38 114.5q0 28 -15 54t-41.5 45.5t-61.5 31t-74 11.5z" />
  </g>

</svg>
